<?xml version="1.0" encoding="UTF-8"?>
<svg width="15px" height="21px" viewBox="0 0 15 21" version="1.1" xmlns="http://www.w3.org/2000/svg" xmlns:xlink="http://www.w3.org/1999/xlink">
    <!-- Generator: Sketch 43 (38999) - http://www.bohemiancoding.com/sketch -->
    <title>Page 1 Copy 2</title>
    <desc>Created with Sketch.</desc>
    <defs>
        <path d="M2.31191781,12.0109589 C2.405,12.7250685 3.0119863,13.2844521 3.69369863,13.2844521 L5.48273973,13.2844521 C6.16445205,13.2844521 6.77136986,12.7250685 6.86363014,12.0173973 L7.52410959,7.37554795 L8.88130137,6.53273973 C9.0689726,6.41630137 9.17,6.19979452 9.13883562,5.9809589 L8.63287671,2.43178082 C8.4309589,1.10226027 7.24732877,0.0205479452 5.99417808,0.0205479452 L5.94787671,0.0205479452 C5.53780822,0.225068493 5.07630137,0.340753425 4.58821918,0.340753425 C4.10013699,0.340753425 3.63863014,0.225136986 3.22856164,0.0205479452 L3.18226027,0.0205479452 C1.92910959,0.0205479452 0.745410959,1.10226027 0.542671233,2.43691781 L0.0376027397,5.9810274 C0.00643835616,6.19979452 0.107328767,6.41630137 0.295,6.53280822 L1.65226027,7.37561644 L2.31191781,12.0109589 Z" id="path-1"></path>
        <path d="M2.12246575,4.24438356 C3.28695205,4.24438356 4.2309589,3.29424658 4.2309589,2.12219178 C4.2309589,0.950136986 3.28695205,0 2.12246575,0 C0.957977397,0 0.0139726027,0.950136986 0.0139726027,2.12219178 C0.0139726027,3.29424658 0.957977397,4.24438356 2.12246575,4.24438356 Z" id="path-3"></path>
        <path d="M10.9441781,0.0215068493 L10.6221233,2.28493151 C10.5471233,2.84828767 10.2736301,3.37171233 9.85143836,3.75965753 C9.41554795,4.16013699 8.86136986,4.38061644 8.2909589,4.38061644 L6.50191781,4.38061644 C5.93068493,4.38061644 5.3760274,4.15945205 4.94020548,3.75780822 C4.51856164,3.36910959 4.24506849,2.8440411 4.16986301,2.27835616 L3.85424658,0.0601369863 C1.69534247,0.490547945 0.0319863014,1.34356164 0.0319863014,2.67027397 C0.0319863014,4.69452055 3.90315068,5.61643836 7.5,5.61643836 C11.0968493,5.61643836 14.9680137,4.69452055 14.9680137,2.67034247 C14.9680137,1.30260274 13.2003425,0.438287671 10.9441781,0.0215068493 Z" id="path-5"></path>
    </defs>
    <g id="app" stroke="none" stroke-width="1" fill="none" fill-rule="evenodd">
        <g id="Group-27" transform="translate(-2413.000000, -965.000000)">
            <g id="photogallery" transform="translate(2374.000000, 371.000000)">
                <g id="details-2">
                    <g id="Group-8-Copy" transform="translate(39.000000, 594.000000)">
                        <g id="Page-1-Copy-2">
                            <g id="Group-3" transform="translate(2.808219, 4.863014)">
                                <mask id="mask-2" fill="white">
                                    <use xlink:href="#path-1"></use>
                                </mask>
                                <g id="Clip-2"></g>
                                <polygon id="Fill-1" stroke="#00738B" fill="#00738B" mask="url(#mask-2)" points="-0.310455479 -0.321917808 9.48689041 -0.321917808 9.48689041 13.6269178 -0.310455479 13.6269178"></polygon>
                            </g>
                            <g id="Group-6" transform="translate(5.273973, 0.000000)">
                                <mask id="mask-4" fill="white">
                                    <use xlink:href="#path-3"></use>
                                </mask>
                                <g id="Clip-5"></g>
                                <polygon id="Fill-4" fill="#00738B" mask="url(#mask-4)" points="-0.328493151 -0.342465753 4.57342466 -0.342465753 4.57342466 4.58684932 -0.328493151 4.58684932"></polygon>
                            </g>
                            <g id="Group-9" transform="translate(0.000000, 14.726027)">
                                <mask id="mask-6" fill="white">
                                    <use xlink:href="#path-5"></use>
                                </mask>
                                <g id="Clip-8"></g>
                                <polygon id="Fill-7" fill="#00738B" mask="url(#mask-6)" points="-0.310479452 -0.320958904 15.3104795 -0.320958904 15.3104795 5.95890411 -0.310479452 5.95890411"></polygon>
                            </g>
                        </g>
                    </g>
                </g>
            </g>
        </g>
    </g>
</svg>