<?xml version="1.0" encoding="UTF-8"?>
<svg width="30px" height="30px" viewBox="0 0 30 30" version="1.1" xmlns="http://www.w3.org/2000/svg" xmlns:xlink="http://www.w3.org/1999/xlink">
    <!-- Generator: Sketch 43 (38999) - http://www.bohemiancoding.com/sketch -->
    <title>if_YouTube_570623</title>
    <desc>Created with Sketch.</desc>
    <defs>
        <linearGradient x1="-197.48517%" y1="-131.234842%" x2="236.371539%" y2="230.307354%" id="linearGradient-1">
            <stop stop-color="#DD272D" offset="0%"></stop>
            <stop stop-color="#CA2429" offset="51.53%"></stop>
            <stop stop-color="#B22025" offset="100%"></stop>
        </linearGradient>
        <linearGradient x1="6.47911628%" y1="6.47911628%" x2="89.4908036%" y2="89.4907835%" id="linearGradient-2">
            <stop stop-color="#DD272D" offset="0%"></stop>
            <stop stop-color="#CA2429" offset="51.53%"></stop>
            <stop stop-color="#B22025" offset="100%"></stop>
        </linearGradient>
    </defs>
    <g id="web+wap+pwa" stroke="none" stroke-width="1" fill="none" fill-rule="evenodd">
        <g id="if_YouTube_570623" fill-rule="nonzero">
            <polygon id="Shape" fill="url(#linearGradient-1)" points="12.7077711 18.4427108 18.4455422 15 12.7077711 11.5572892"></polygon>
            <path d="M15,0.00590361446 C6.7189759,0.00590361446 0.00590361446,6.7189759 0.00590361446,15 C0.00590361446,23.2810241 6.7189759,29.9940964 15,29.9940964 C23.2810241,29.9940964 29.9940964,23.2810241 29.9940964,15 C29.9940964,6.7189759 23.2810241,0.00590361446 15,0.00590361446 Z M24.1776506,15.7401807 C24.1776506,17.3249398 23.9940361,18.9091566 23.9940361,18.9091566 C23.9940361,18.9091566 23.8144578,20.2586747 23.264759,20.851988 C22.5664458,21.6312048 21.7843976,21.6357831 21.4257831,21.6816867 C18.856988,21.878494 15,21.8853614 15,21.8853614 C15,21.8853614 10.2272892,21.8389157 8.7589759,21.6885542 C8.35042169,21.6070482 7.43409639,21.6306024 6.73524096,20.8513855 C6.185,20.2580723 6.00596386,18.9085542 6.00596386,18.9085542 C6.00596386,18.9085542 5.8223494,17.3248795 5.8223494,15.7395783 L5.8223494,14.2546386 C5.8223494,12.6704217 6.00596386,11.0862048 6.00596386,11.0862048 C6.00596386,11.0862048 6.18554217,9.73608434 6.73524096,9.14168675 C7.43409639,8.36246988 8.21560241,8.35789157 8.57421687,8.31373494 C11.1424699,8.11463855 14.9954217,8.11463855 14.9954217,8.11463855 L15.0040361,8.11463855 C15.0040361,8.11463855 18.856988,8.11463855 21.4257831,8.31373494 C21.7843976,8.35789157 22.5664458,8.36253012 23.264759,9.14168675 C23.815,9.73614458 23.9940361,11.0862048 23.9940361,11.0862048 C23.9940361,11.0862048 24.1776506,12.6704217 24.1776506,14.2551807 L24.1776506,15.7401807 L24.1776506,15.7401807 Z" id="Shape" fill="url(#linearGradient-2)"></path>
        </g>
    </g>
</svg>