<?xml version="1.0" encoding="UTF-8"?>
<svg width="8px" height="11px" viewBox="0 0 8 11" version="1.1" xmlns="http://www.w3.org/2000/svg" xmlns:xlink="http://www.w3.org/1999/xlink">
    <!-- Generator: Sketch 43 (38999) - http://www.bohemiancoding.com/sketch -->
    <title>india-rupee-currency-symbol</title>
    <desc>Created with Sketch.</desc>
    <defs></defs>
    <g id="app" stroke="none" stroke-width="1" fill="none" fill-rule="evenodd">
        <g id="Group-27" transform="translate(0.000000, -1495.000000)" fill="#C50000">
            <g id="india-rupee-currency-symbol" transform="translate(0.000000, 1495.000000)">
                <path d="M7.43184342,2.29051817 L6.63639608,2.29051817 C6.58379764,1.82950271 6.42321895,1.39796236 6.16841032,1.0639349 L7.43181963,1.0639349 C7.73444503,1.0639349 7.9795,0.837959057 7.9795,0.535428812 C7.9795,0.232755832 7.73442124,0.000547157004 7.43181963,0.000547157004 L3.14769923,0.000547157004 C3.132022,0.000547157004 3.11691571,0 3.10081026,0 C3.09039049,0 3.07994692,0.000547157004 3.06952715,0.000547157004 L1.02718037,0.000547157004 C0.724578759,0.000547157004 0.4795,0.232922358 0.4795,0.535428812 C0.4795,0.837935267 0.724578759,1.0639349 1.02718037,1.0639349 L3.45601031,1.0639349 C4.22305306,1.1197687 5.02651744,1.41651811 5.23814825,2.29051817 L1.02718037,2.29051817 C0.724578759,2.29051817 0.4795,2.53576345 0.4795,2.83841264 C0.4795,3.14094289 0.724578759,3.38630712 1.02718037,3.38630712 L5.18357529,3.38630712 C4.92498413,4.07700957 4.21467918,4.49827289 3.227489,4.49827289 L2.13821835,4.49827289 L1.49990023,4.49827289 C1.20488745,4.49827289 0.965708472,4.73745187 0.965708472,5.03246465 C0.965708472,5.3275488 1.20488745,5.56672778 1.49990023,5.56672778 L2.12751311,5.56672778 C2.13010615,5.56701325 3.12621738,5.56827409 3.12621738,5.56827409 C4.20311752,5.60919192 4.682094,6.07617853 4.95671924,7.35379013 C5.17158541,8.30279827 5.32978516,8.92091916 5.4542039,9.29115414 C5.5474347,9.63367442 5.73192176,10.1497386 6.05196103,10.4579783 C6.17711725,10.5783291 6.33852857,10.6382309 6.49939273,10.6382309 C6.66870213,10.6382309 6.83798775,10.5720011 6.96469028,10.4402552 C7.19687517,10.1989352 7.2010859,9.82548863 6.98831319,9.57588988 C6.78976657,9.2023006 6.5521339,8.22474514 6.26218827,6.984816 C6.03171622,5.97659595 5.60115124,5.34862624 4.9487022,5.06979027 C5.76793897,4.75529394 6.33151068,4.15375429 6.55239559,3.38616438 L7.43179584,3.38616438 C7.73442124,3.38616438 7.97947621,3.14080015 7.97947621,2.83826991 C7.97947621,2.53573966 7.73446882,2.29051817 7.43184342,2.29051817 Z" id="Shape"></path>
            </g>
        </g>
    </g>
</svg>