<?xml version="1.0" encoding="UTF-8"?>
<svg width="15px" height="14px" viewBox="0 0 15 14" version="1.1" xmlns="http://www.w3.org/2000/svg" xmlns:xlink="http://www.w3.org/1999/xlink">
    <!-- Generator: Sketch 43 (38999) - http://www.bohemiancoding.com/sketch -->
    <title>passage-of-time copy</title>
    <desc>Created with Sketch.</desc>
    <defs></defs>
    <g id="app" stroke="none" stroke-width="1" fill="none" fill-rule="evenodd">
        <g id="Group-27" transform="translate(-2586.000000, -855.000000)" fill="#00B8DE">
            <g id="photogallery" transform="translate(2374.000000, 371.000000)">
                <g id="details-2">
                    <g id="Group-10-Copy" transform="translate(212.000000, 482.000000)">
                        <g id="passage-of-time-copy" transform="translate(0.000000, 2.000000)">
                            <g id="Layer_1_65_">
                                <g id="Group">
                                    <path d="M14.8967861,5.975 C14.8450203,5.8665625 14.734502,5.7971875 14.6122332,5.7971875 L13.6826728,5.7971875 C13.091654,2.64125 10.275343,0.2421875 6.89977134,0.2421875 C3.09546494,0.2421875 0,3.288125 0,7.0315625 C0,10.775 3.09514736,13.820625 6.89977134,13.820625 C9.35499238,13.820625 11.6447536,12.5203125 12.8753811,10.4278125 C13.0487805,10.1325 12.9465193,9.7553125 12.6460874,9.584375 C12.3462907,9.4134375 11.9626524,9.5140625 11.7895706,9.809375 C10.7822027,11.5221875 8.90847307,12.5865625 6.89977134,12.5865625 C3.78715701,12.5865625 1.25444614,10.0946875 1.25444614,7.0321875 C1.25444614,3.9690625 3.78715701,1.4771875 6.89977134,1.4771875 C9.58079268,1.4771875 11.8270452,3.3275 12.3993267,5.7975 L11.4770706,5.7975 C11.3548018,5.7975 11.2446011,5.866875 11.1925178,5.9753125 C11.140752,6.08375 11.1575838,6.2115625 11.2357088,6.30375 L12.8039253,8.1553125 C12.8636306,8.225625 12.9516006,8.26625 13.0449695,8.26625 C13.1380208,8.26625 13.2263084,8.2253125 13.2856961,8.1553125 L14.8539126,6.30375 C14.9320376,6.21125 14.9485518,6.0834375 14.8967861,5.975 Z" id="Shape"></path>
                                    <path d="M6.89977134,1.7853125 C6.55329014,1.7853125 6.27254827,2.0615625 6.27254827,2.4025 L6.27254827,6.1475 C5.98894817,6.343125 5.80221037,6.665625 5.80221037,7.031875 C5.80221037,7.6275 6.29477896,8.1121875 6.90008892,8.1121875 C7.06586636,8.1121875 7.22211636,8.073125 7.36312246,8.0078125 L9.544906,9.246875 C9.64399136,9.3034375 9.75133384,9.33 9.85804116,9.33 C10.0746316,9.33 10.2855056,9.219375 10.4017403,9.02125 C10.5748222,8.7265625 10.4722434,8.34875 10.1718115,8.1784375 L7.98780488,6.9375 C7.9585874,6.61125 7.78614075,6.32625 7.52762957,6.148125 L7.52762957,2.4025 C7.52699441,2.061875 7.24593496,1.7853125 6.89977134,1.7853125 Z M6.89977134,7.494375 C6.64030742,7.494375 6.42943343,7.2865625 6.42943343,7.031875 C6.42943343,6.776875 6.640625,6.5690625 6.89977134,6.5690625 C7.15891768,6.5690625 7.37010925,6.776875 7.37010925,7.031875 C7.37010925,7.2865625 7.15891768,7.494375 6.89977134,7.494375 Z" id="Shape"></path>
                                </g>
                            </g>
                        </g>
                    </g>
                </g>
            </g>
        </g>
    </g>
</svg>