<?xml version="1.0" encoding="UTF-8"?>
<svg width="30px" height="30px" viewBox="0 0 30 30" version="1.1" xmlns="http://www.w3.org/2000/svg" xmlns:xlink="http://www.w3.org/1999/xlink">
    <!-- Generator: Sketch 43 (38999) - http://www.bohemiancoding.com/sketch -->
    <title>if_Facebook_570631</title>
    <desc>Created with Sketch.</desc>
    <defs>
        <linearGradient x1="82.9018851%" y1="91.5527999%" x2="12.9983487%" y2="3.26945947%" id="linearGradient-1">
            <stop stop-color="#3B5998" offset="0%"></stop>
            <stop stop-color="#336699" offset="100%"></stop>
        </linearGradient>
    </defs>
    <g id="web+wap+pwa" stroke="none" stroke-width="1" fill="none" fill-rule="evenodd">
        <g id="if_Facebook_570631" fill-rule="nonzero" fill="url(#linearGradient-1)">
            <path d="M15,0.00590361446 C6.7189759,0.00590361446 0.00590361446,6.7189759 0.00590361446,15 C0.00590361446,23.2810241 6.7189759,29.9940964 15,29.9940964 C15.1072892,29.9940964 15.2140964,29.9922892 15.3208434,29.9900602 L15.3208434,20.1045181 L12.0001205,20.1045181 L12.0001205,15.9536145 L15.3208434,15.9536145 L15.3208434,13.4630723 C15.3208434,10.0435542 17.2510241,7.65180723 20.301988,7.65180723 L23.6227108,7.65180723 L23.6227108,11.8027108 L21.9623494,11.8027108 C20.3036145,11.8027108 19.4718072,12.6328916 19.4718072,14.293253 L19.4718072,15.9536145 L23.6227108,15.9536145 L22.7925301,20.1045181 L19.4718072,20.1045181 L19.4718072,29.3158434 C25.5686747,27.4133133 29.9940964,21.7235542 29.9940964,15 C29.9940964,6.7189759 23.2810241,0.00590361446 15,0.00590361446 Z" id="Shape"></path>
        </g>
    </g>
</svg>