<?xml version="1.0" encoding="UTF-8"?>
<svg width="8px" height="11px" viewBox="0 0 8 11" version="1.1" xmlns="http://www.w3.org/2000/svg" xmlns:xlink="http://www.w3.org/1999/xlink">
    <!-- Generator: Sketch 43 (38999) - http://www.bohemiancoding.com/sketch -->
    <title>placeholder(1)</title>
    <desc>Created with Sketch.</desc>
    <defs></defs>
    <g id="app" stroke="none" stroke-width="1" fill="none" fill-rule="evenodd">
        <g id="Group-27" transform="translate(0.000000, -1536.000000)" fill="#474747">
            <g id="placeholder(1)" transform="translate(0.000000, 1536.000000)">
                <path d="M6.49764997,1.07400697 L6.49764997,1.07400697 C5.06583366,-0.35780934 2.74422562,-0.35780934 1.31220759,1.07400697 L1.31220759,1.07400697 C0.0219994935,2.36421507 -0.123239692,4.79354217 0.971702392,6.25339771 L3.90492878,10.4895406 L6.83815517,6.25339771 C7.93309726,4.79354217 7.78785807,2.36421507 6.49764997,1.07400697 Z M3.94063341,4.84135007 C3.27212972,4.84135007 2.73030687,4.29952722 2.73030687,3.63102352 C2.73030687,2.96251982 3.27212972,2.42069697 3.94063341,2.42069697 C4.60913711,2.42069697 5.15095996,2.96251982 5.15095996,3.63102352 C5.15095996,4.29952722 4.60913711,4.84135007 3.94063341,4.84135007 Z" id="Shape"></path>
            </g>
        </g>
    </g>
</svg>