<?xml version="1.0" encoding="UTF-8"?>
<svg width="30px" height="30px" viewBox="0 0 30 30" version="1.1" xmlns="http://www.w3.org/2000/svg" xmlns:xlink="http://www.w3.org/1999/xlink">
    <!-- Generator: Sketch 43 (38999) - http://www.bohemiancoding.com/sketch -->
    <title>Shape</title>
    <desc>Created with Sketch.</desc>
    <defs>
        <linearGradient x1="2.37513158%" y1="-3.04103623%" x2="79.2087649%" y2="82.5305542%" id="linearGradient-1">
            <stop stop-color="#11A4DC" offset="0%"></stop>
            <stop stop-color="#0F94C9" offset="50.51%"></stop>
            <stop stop-color="#0C82B4" offset="100%"></stop>
        </linearGradient>
    </defs>
    <g id="web+wap+pwa" stroke="none" stroke-width="1" fill="none" fill-rule="evenodd">
        <path d="M15,0 C6.71571542,0 0,6.71571542 0,15 C0,23.2842846 6.71571542,30 15,30 C23.2842846,30 30,23.2842846 30,15 C30,6.71571542 23.2842846,0 15,0 Z M22.3022716,11.2544295 C22.3093828,11.4162401 22.3126974,11.5790753 22.3126974,11.7423926 C22.3126974,16.7210388 18.5235555,22.4616717 11.5934183,22.4616717 C9.466075,22.4616717 7.48589806,21.8384143 5.81813324,20.7689573 C6.11300833,20.803971 6.41306619,20.8218697 6.71686045,20.8218697 C8.48225406,20.8218697 10.1063873,20.2194639 11.3958104,19.2088854 C9.7474508,19.1786928 8.35624061,18.0891074 7.87653374,16.592434 C8.10650376,16.6367888 8.34250026,16.660292 8.58554773,16.660292 C8.92923721,16.660292 9.26213932,16.614069 9.57822758,16.5283123 C7.85453713,16.1816699 6.55583322,14.6592635 6.55583322,12.8342078 C6.55583322,12.8181774 6.55583322,12.802147 6.55619481,12.7864782 C7.06428635,13.0686375 7.64541868,13.2382825 8.26270982,13.2580494 C7.25176977,12.5826028 6.586749,11.4292573 6.586749,10.1223574 C6.586749,9.43124201 6.77236422,8.78411985 7.09670874,8.2279371 C8.95497023,10.5073885 11.7313039,12.0070751 14.8625363,12.1643659 C14.798053,11.8881126 14.7648472,11.6007103 14.7648472,11.3058955 C14.7648472,9.2251368 16.4515954,7.53832834 18.5320528,7.53832834 C19.615672,7.53832834 20.5949129,7.99609887 21.2819302,8.72819423 C22.1404006,8.558971 22.9463202,8.24547412 23.6743176,7.81343661 C23.3928815,8.69390362 22.7960804,9.43196519 22.017762,9.89793172 C22.78005,9.8073539 23.506601,9.60492483 24.181686,9.30486698 C23.6770295,10.0604656 23.0381636,10.7243413 22.3022716,11.2544295 Z" id="Shape" fill="url(#linearGradient-1)" fill-rule="nonzero"></path>
    </g>
</svg>