<?xml version="1.0" encoding="UTF-8"?>
<svg width="71px" height="210px" viewBox="0 0 71 210" version="1.1" xmlns="http://www.w3.org/2000/svg" xmlns:xlink="http://www.w3.org/1999/xlink">
    <!-- Generator: Sketch 43 (38999) - http://www.bohemiancoding.com/sketch -->
    <title>Group 11</title>
    <desc>Created with Sketch.</desc>
    <defs></defs>
    <g id="app-all_user_hospital" stroke="none" stroke-width="1" fill="none" fill-rule="evenodd">
        <g id="Group-11">
            <g id="india-rupee-currency-symbol" fill="#464646">
                <path d="M9.28980427,2.86314771 L8.2954951,2.86314771 C8.22974705,2.28687838 8.02902369,1.74745294 7.7105129,1.32991862 L9.28977454,1.32991862 C9.66805629,1.32991862 9.974375,1.04744882 9.974375,0.669286016 C9.974375,0.290944789 9.66802655,0.000683946255 9.28977454,0.000683946255 L3.93462404,0.000683946255 C3.9150275,0.000683946255 3.89614463,0 3.87601282,0 C3.86298811,0 3.84993366,0.000683946255 3.83690894,0.000683946255 L1.28397546,0.000683946255 C0.905723449,0.000683946255 0.599375,0.291152947 0.599375,0.669286016 C0.599375,1.04741908 0.905723449,1.32991862 1.28397546,1.32991862 L4.32001289,1.32991862 C5.27881633,1.39971088 6.2831468,1.77064764 6.54768532,2.86314771 L1.28397546,2.86314771 C0.905723449,2.86314771 0.599375,3.16970431 0.599375,3.5480158 C0.599375,3.92617861 0.905723449,4.2328839 1.28397546,4.2328839 L6.47946911,4.2328839 C6.15623016,5.09626197 5.26834898,5.62284111 4.03436125,5.62284111 L2.67277294,5.62284111 L2.66881795,5.62284111 L1.87487529,5.62284111 C1.50610931,5.62284111 1.20713559,5.92181483 1.20713559,6.29058081 C1.20713559,6.659436 1.50610931,6.95840972 1.87487529,6.95840972 L2.65939138,6.95840972 C2.66263269,6.95876657 2.6655469,6.96034262 2.66878821,6.96034262 L3.90777172,6.96034262 C5.2538969,7.0114899 5.8526175,7.59522316 6.19589905,9.19223767 C6.46448177,10.3784978 6.66223145,11.151149 6.81775488,11.6139427 C6.93429337,12.042093 7.16490221,12.6871733 7.56495129,13.0724729 C7.72139656,13.2229114 7.92316071,13.2977886 8.12424091,13.2977886 C8.33587767,13.2977886 8.54748469,13.2150014 8.70586285,13.050319 C8.99609396,12.748669 9.00135737,12.2818608 8.73539149,11.9698624 C8.73417228,11.966175 8.73470754,11.9621308 8.73277465,11.9584434 C8.48720821,11.5028757 8.19016738,10.2809314 7.82773534,8.73102 C7.53964528,7.47074494 7.00143905,6.6857828 6.18587775,6.33723784 C7.20992371,5.94411743 7.91438835,5.19219286 8.19049448,4.23270548 L9.2897448,4.23270548 C9.66802655,4.23270548 9.97434526,3.92600019 9.97434526,3.54783738 C9.97434526,3.16967458 9.66808602,2.86314771 9.28980427,2.86314771 Z" id="Shape"></path>
            </g>
            <g id="india-rupee-currency-symbol-copy" transform="translate(15.000000, 0.000000)" fill="#BDBDBD">
                <path d="M9.28980427,2.86314771 L8.2954951,2.86314771 C8.22974705,2.28687838 8.02902369,1.74745294 7.7105129,1.32991862 L9.28977454,1.32991862 C9.66805629,1.32991862 9.974375,1.04744882 9.974375,0.669286016 C9.974375,0.290944789 9.66802655,0.000683946255 9.28977454,0.000683946255 L3.93462404,0.000683946255 C3.9150275,0.000683946255 3.89614463,0 3.87601282,0 C3.86298811,0 3.84993366,0.000683946255 3.83690894,0.000683946255 L1.28397546,0.000683946255 C0.905723449,0.000683946255 0.599375,0.291152947 0.599375,0.669286016 C0.599375,1.04741908 0.905723449,1.32991862 1.28397546,1.32991862 L4.32001289,1.32991862 C5.27881633,1.39971088 6.2831468,1.77064764 6.54768532,2.86314771 L1.28397546,2.86314771 C0.905723449,2.86314771 0.599375,3.16970431 0.599375,3.5480158 C0.599375,3.92617861 0.905723449,4.2328839 1.28397546,4.2328839 L6.47946911,4.2328839 C6.15623016,5.09626197 5.26834898,5.62284111 4.03436125,5.62284111 L2.67277294,5.62284111 L2.66881795,5.62284111 L1.87487529,5.62284111 C1.50610931,5.62284111 1.20713559,5.92181483 1.20713559,6.29058081 C1.20713559,6.659436 1.50610931,6.95840972 1.87487529,6.95840972 L2.65939138,6.95840972 C2.66263269,6.95876657 2.6655469,6.96034262 2.66878821,6.96034262 L3.90777172,6.96034262 C5.2538969,7.0114899 5.8526175,7.59522316 6.19589905,9.19223767 C6.46448177,10.3784978 6.66223145,11.151149 6.81775488,11.6139427 C6.93429337,12.042093 7.16490221,12.6871733 7.56495129,13.0724729 C7.72139656,13.2229114 7.92316071,13.2977886 8.12424091,13.2977886 C8.33587767,13.2977886 8.54748469,13.2150014 8.70586285,13.050319 C8.99609396,12.748669 9.00135737,12.2818608 8.73539149,11.9698624 C8.73417228,11.966175 8.73470754,11.9621308 8.73277465,11.9584434 C8.48720821,11.5028757 8.19016738,10.2809314 7.82773534,8.73102 C7.53964528,7.47074494 7.00143905,6.6857828 6.18587775,6.33723784 C7.20992371,5.94411743 7.91438835,5.19219286 8.19049448,4.23270548 L9.2897448,4.23270548 C9.66802655,4.23270548 9.97434526,3.92600019 9.97434526,3.54783738 C9.97434526,3.16967458 9.66808602,2.86314771 9.28980427,2.86314771 Z" id="Shape"></path>
            </g>
            <g id="india-rupee-currency-symbol-copy-2" transform="translate(30.000000, 0.000000)" fill="#BDBDBD">
                <path d="M9.28980427,2.86314771 L8.2954951,2.86314771 C8.22974705,2.28687838 8.02902369,1.74745294 7.7105129,1.32991862 L9.28977454,1.32991862 C9.66805629,1.32991862 9.974375,1.04744882 9.974375,0.669286016 C9.974375,0.290944789 9.66802655,0.000683946255 9.28977454,0.000683946255 L3.93462404,0.000683946255 C3.9150275,0.000683946255 3.89614463,0 3.87601282,0 C3.86298811,0 3.84993366,0.000683946255 3.83690894,0.000683946255 L1.28397546,0.000683946255 C0.905723449,0.000683946255 0.599375,0.291152947 0.599375,0.669286016 C0.599375,1.04741908 0.905723449,1.32991862 1.28397546,1.32991862 L4.32001289,1.32991862 C5.27881633,1.39971088 6.2831468,1.77064764 6.54768532,2.86314771 L1.28397546,2.86314771 C0.905723449,2.86314771 0.599375,3.16970431 0.599375,3.5480158 C0.599375,3.92617861 0.905723449,4.2328839 1.28397546,4.2328839 L6.47946911,4.2328839 C6.15623016,5.09626197 5.26834898,5.62284111 4.03436125,5.62284111 L2.67277294,5.62284111 L2.66881795,5.62284111 L1.87487529,5.62284111 C1.50610931,5.62284111 1.20713559,5.92181483 1.20713559,6.29058081 C1.20713559,6.659436 1.50610931,6.95840972 1.87487529,6.95840972 L2.65939138,6.95840972 C2.66263269,6.95876657 2.6655469,6.96034262 2.66878821,6.96034262 L3.90777172,6.96034262 C5.2538969,7.0114899 5.8526175,7.59522316 6.19589905,9.19223767 C6.46448177,10.3784978 6.66223145,11.151149 6.81775488,11.6139427 C6.93429337,12.042093 7.16490221,12.6871733 7.56495129,13.0724729 C7.72139656,13.2229114 7.92316071,13.2977886 8.12424091,13.2977886 C8.33587767,13.2977886 8.54748469,13.2150014 8.70586285,13.050319 C8.99609396,12.748669 9.00135737,12.2818608 8.73539149,11.9698624 C8.73417228,11.966175 8.73470754,11.9621308 8.73277465,11.9584434 C8.48720821,11.5028757 8.19016738,10.2809314 7.82773534,8.73102 C7.53964528,7.47074494 7.00143905,6.6857828 6.18587775,6.33723784 C7.20992371,5.94411743 7.91438835,5.19219286 8.19049448,4.23270548 L9.2897448,4.23270548 C9.66802655,4.23270548 9.97434526,3.92600019 9.97434526,3.54783738 C9.97434526,3.16967458 9.66808602,2.86314771 9.28980427,2.86314771 Z" id="Shape"></path>
            </g>
            <g id="india-rupee-currency-symbol-copy-3" transform="translate(45.000000, 0.000000)" fill="#BDBDBD">
                <path d="M9.28980427,2.86314771 L8.2954951,2.86314771 C8.22974705,2.28687838 8.02902369,1.74745294 7.7105129,1.32991862 L9.28977454,1.32991862 C9.66805629,1.32991862 9.974375,1.04744882 9.974375,0.669286016 C9.974375,0.290944789 9.66802655,0.000683946255 9.28977454,0.000683946255 L3.93462404,0.000683946255 C3.9150275,0.000683946255 3.89614463,0 3.87601282,0 C3.86298811,0 3.84993366,0.000683946255 3.83690894,0.000683946255 L1.28397546,0.000683946255 C0.905723449,0.000683946255 0.599375,0.291152947 0.599375,0.669286016 C0.599375,1.04741908 0.905723449,1.32991862 1.28397546,1.32991862 L4.32001289,1.32991862 C5.27881633,1.39971088 6.2831468,1.77064764 6.54768532,2.86314771 L1.28397546,2.86314771 C0.905723449,2.86314771 0.599375,3.16970431 0.599375,3.5480158 C0.599375,3.92617861 0.905723449,4.2328839 1.28397546,4.2328839 L6.47946911,4.2328839 C6.15623016,5.09626197 5.26834898,5.62284111 4.03436125,5.62284111 L2.67277294,5.62284111 L2.66881795,5.62284111 L1.87487529,5.62284111 C1.50610931,5.62284111 1.20713559,5.92181483 1.20713559,6.29058081 C1.20713559,6.659436 1.50610931,6.95840972 1.87487529,6.95840972 L2.65939138,6.95840972 C2.66263269,6.95876657 2.6655469,6.96034262 2.66878821,6.96034262 L3.90777172,6.96034262 C5.2538969,7.0114899 5.8526175,7.59522316 6.19589905,9.19223767 C6.46448177,10.3784978 6.66223145,11.151149 6.81775488,11.6139427 C6.93429337,12.042093 7.16490221,12.6871733 7.56495129,13.0724729 C7.72139656,13.2229114 7.92316071,13.2977886 8.12424091,13.2977886 C8.33587767,13.2977886 8.54748469,13.2150014 8.70586285,13.050319 C8.99609396,12.748669 9.00135737,12.2818608 8.73539149,11.9698624 C8.73417228,11.966175 8.73470754,11.9621308 8.73277465,11.9584434 C8.48720821,11.5028757 8.19016738,10.2809314 7.82773534,8.73102 C7.53964528,7.47074494 7.00143905,6.6857828 6.18587775,6.33723784 C7.20992371,5.94411743 7.91438835,5.19219286 8.19049448,4.23270548 L9.2897448,4.23270548 C9.66802655,4.23270548 9.97434526,3.92600019 9.97434526,3.54783738 C9.97434526,3.16967458 9.66808602,2.86314771 9.28980427,2.86314771 Z" id="Shape"></path>
            </g>
            <g id="india-rupee-currency-symbol-copy-4" transform="translate(61.000000, 0.000000)" fill="#BDBDBD">
                <path d="M9.28980427,2.86314771 L8.2954951,2.86314771 C8.22974705,2.28687838 8.02902369,1.74745294 7.7105129,1.32991862 L9.28977454,1.32991862 C9.66805629,1.32991862 9.974375,1.04744882 9.974375,0.669286016 C9.974375,0.290944789 9.66802655,0.000683946255 9.28977454,0.000683946255 L3.93462404,0.000683946255 C3.9150275,0.000683946255 3.89614463,0 3.87601282,0 C3.86298811,0 3.84993366,0.000683946255 3.83690894,0.000683946255 L1.28397546,0.000683946255 C0.905723449,0.000683946255 0.599375,0.291152947 0.599375,0.669286016 C0.599375,1.04741908 0.905723449,1.32991862 1.28397546,1.32991862 L4.32001289,1.32991862 C5.27881633,1.39971088 6.2831468,1.77064764 6.54768532,2.86314771 L1.28397546,2.86314771 C0.905723449,2.86314771 0.599375,3.16970431 0.599375,3.5480158 C0.599375,3.92617861 0.905723449,4.2328839 1.28397546,4.2328839 L6.47946911,4.2328839 C6.15623016,5.09626197 5.26834898,5.62284111 4.03436125,5.62284111 L2.67277294,5.62284111 L2.66881795,5.62284111 L1.87487529,5.62284111 C1.50610931,5.62284111 1.20713559,5.92181483 1.20713559,6.29058081 C1.20713559,6.659436 1.50610931,6.95840972 1.87487529,6.95840972 L2.65939138,6.95840972 C2.66263269,6.95876657 2.6655469,6.96034262 2.66878821,6.96034262 L3.90777172,6.96034262 C5.2538969,7.0114899 5.8526175,7.59522316 6.19589905,9.19223767 C6.46448177,10.3784978 6.66223145,11.151149 6.81775488,11.6139427 C6.93429337,12.042093 7.16490221,12.6871733 7.56495129,13.0724729 C7.72139656,13.2229114 7.92316071,13.2977886 8.12424091,13.2977886 C8.33587767,13.2977886 8.54748469,13.2150014 8.70586285,13.050319 C8.99609396,12.748669 9.00135737,12.2818608 8.73539149,11.9698624 C8.73417228,11.966175 8.73470754,11.9621308 8.73277465,11.9584434 C8.48720821,11.5028757 8.19016738,10.2809314 7.82773534,8.73102 C7.53964528,7.47074494 7.00143905,6.6857828 6.18587775,6.33723784 C7.20992371,5.94411743 7.91438835,5.19219286 8.19049448,4.23270548 L9.2897448,4.23270548 C9.66802655,4.23270548 9.97434526,3.92600019 9.97434526,3.54783738 C9.97434526,3.16967458 9.66808602,2.86314771 9.28980427,2.86314771 Z" id="Shape"></path>
            </g>
            <g id="india-rupee-currency-symbol-copy-9" transform="translate(0.000000, 55.000000)" fill="#464646">
                <path d="M9.28980427,2.86314771 L8.2954951,2.86314771 C8.22974705,2.28687838 8.02902369,1.74745294 7.7105129,1.32991862 L9.28977454,1.32991862 C9.66805629,1.32991862 9.974375,1.04744882 9.974375,0.669286016 C9.974375,0.290944789 9.66802655,0.000683946255 9.28977454,0.000683946255 L3.93462404,0.000683946255 C3.9150275,0.000683946255 3.89614463,0 3.87601282,0 C3.86298811,0 3.84993366,0.000683946255 3.83690894,0.000683946255 L1.28397546,0.000683946255 C0.905723449,0.000683946255 0.599375,0.291152947 0.599375,0.669286016 C0.599375,1.04741908 0.905723449,1.32991862 1.28397546,1.32991862 L4.32001289,1.32991862 C5.27881633,1.39971088 6.2831468,1.77064764 6.54768532,2.86314771 L1.28397546,2.86314771 C0.905723449,2.86314771 0.599375,3.16970431 0.599375,3.5480158 C0.599375,3.92617861 0.905723449,4.2328839 1.28397546,4.2328839 L6.47946911,4.2328839 C6.15623016,5.09626197 5.26834898,5.62284111 4.03436125,5.62284111 L2.67277294,5.62284111 L2.66881795,5.62284111 L1.87487529,5.62284111 C1.50610931,5.62284111 1.20713559,5.92181483 1.20713559,6.29058081 C1.20713559,6.659436 1.50610931,6.95840972 1.87487529,6.95840972 L2.65939138,6.95840972 C2.66263269,6.95876657 2.6655469,6.96034262 2.66878821,6.96034262 L3.90777172,6.96034262 C5.2538969,7.0114899 5.8526175,7.59522316 6.19589905,9.19223767 C6.46448177,10.3784978 6.66223145,11.151149 6.81775488,11.6139427 C6.93429337,12.042093 7.16490221,12.6871733 7.56495129,13.0724729 C7.72139656,13.2229114 7.92316071,13.2977886 8.12424091,13.2977886 C8.33587767,13.2977886 8.54748469,13.2150014 8.70586285,13.050319 C8.99609396,12.748669 9.00135737,12.2818608 8.73539149,11.9698624 C8.73417228,11.966175 8.73470754,11.9621308 8.73277465,11.9584434 C8.48720821,11.5028757 8.19016738,10.2809314 7.82773534,8.73102 C7.53964528,7.47074494 7.00143905,6.6857828 6.18587775,6.33723784 C7.20992371,5.94411743 7.91438835,5.19219286 8.19049448,4.23270548 L9.2897448,4.23270548 C9.66802655,4.23270548 9.97434526,3.92600019 9.97434526,3.54783738 C9.97434526,3.16967458 9.66808602,2.86314771 9.28980427,2.86314771 Z" id="Shape"></path>
            </g>
            <g id="india-rupee-currency-symbol-copy-8" transform="translate(15.000000, 55.000000)" fill="#464646">
                <path d="M9.28980427,2.86314771 L8.2954951,2.86314771 C8.22974705,2.28687838 8.02902369,1.74745294 7.7105129,1.32991862 L9.28977454,1.32991862 C9.66805629,1.32991862 9.974375,1.04744882 9.974375,0.669286016 C9.974375,0.290944789 9.66802655,0.000683946255 9.28977454,0.000683946255 L3.93462404,0.000683946255 C3.9150275,0.000683946255 3.89614463,0 3.87601282,0 C3.86298811,0 3.84993366,0.000683946255 3.83690894,0.000683946255 L1.28397546,0.000683946255 C0.905723449,0.000683946255 0.599375,0.291152947 0.599375,0.669286016 C0.599375,1.04741908 0.905723449,1.32991862 1.28397546,1.32991862 L4.32001289,1.32991862 C5.27881633,1.39971088 6.2831468,1.77064764 6.54768532,2.86314771 L1.28397546,2.86314771 C0.905723449,2.86314771 0.599375,3.16970431 0.599375,3.5480158 C0.599375,3.92617861 0.905723449,4.2328839 1.28397546,4.2328839 L6.47946911,4.2328839 C6.15623016,5.09626197 5.26834898,5.62284111 4.03436125,5.62284111 L2.67277294,5.62284111 L2.66881795,5.62284111 L1.87487529,5.62284111 C1.50610931,5.62284111 1.20713559,5.92181483 1.20713559,6.29058081 C1.20713559,6.659436 1.50610931,6.95840972 1.87487529,6.95840972 L2.65939138,6.95840972 C2.66263269,6.95876657 2.6655469,6.96034262 2.66878821,6.96034262 L3.90777172,6.96034262 C5.2538969,7.0114899 5.8526175,7.59522316 6.19589905,9.19223767 C6.46448177,10.3784978 6.66223145,11.151149 6.81775488,11.6139427 C6.93429337,12.042093 7.16490221,12.6871733 7.56495129,13.0724729 C7.72139656,13.2229114 7.92316071,13.2977886 8.12424091,13.2977886 C8.33587767,13.2977886 8.54748469,13.2150014 8.70586285,13.050319 C8.99609396,12.748669 9.00135737,12.2818608 8.73539149,11.9698624 C8.73417228,11.966175 8.73470754,11.9621308 8.73277465,11.9584434 C8.48720821,11.5028757 8.19016738,10.2809314 7.82773534,8.73102 C7.53964528,7.47074494 7.00143905,6.6857828 6.18587775,6.33723784 C7.20992371,5.94411743 7.91438835,5.19219286 8.19049448,4.23270548 L9.2897448,4.23270548 C9.66802655,4.23270548 9.97434526,3.92600019 9.97434526,3.54783738 C9.97434526,3.16967458 9.66808602,2.86314771 9.28980427,2.86314771 Z" id="Shape"></path>
            </g>
            <g id="india-rupee-currency-symbol-copy-7" transform="translate(30.000000, 55.000000)" fill="#BDBDBD">
                <path d="M9.28980427,2.86314771 L8.2954951,2.86314771 C8.22974705,2.28687838 8.02902369,1.74745294 7.7105129,1.32991862 L9.28977454,1.32991862 C9.66805629,1.32991862 9.974375,1.04744882 9.974375,0.669286016 C9.974375,0.290944789 9.66802655,0.000683946255 9.28977454,0.000683946255 L3.93462404,0.000683946255 C3.9150275,0.000683946255 3.89614463,0 3.87601282,0 C3.86298811,0 3.84993366,0.000683946255 3.83690894,0.000683946255 L1.28397546,0.000683946255 C0.905723449,0.000683946255 0.599375,0.291152947 0.599375,0.669286016 C0.599375,1.04741908 0.905723449,1.32991862 1.28397546,1.32991862 L4.32001289,1.32991862 C5.27881633,1.39971088 6.2831468,1.77064764 6.54768532,2.86314771 L1.28397546,2.86314771 C0.905723449,2.86314771 0.599375,3.16970431 0.599375,3.5480158 C0.599375,3.92617861 0.905723449,4.2328839 1.28397546,4.2328839 L6.47946911,4.2328839 C6.15623016,5.09626197 5.26834898,5.62284111 4.03436125,5.62284111 L2.67277294,5.62284111 L2.66881795,5.62284111 L1.87487529,5.62284111 C1.50610931,5.62284111 1.20713559,5.92181483 1.20713559,6.29058081 C1.20713559,6.659436 1.50610931,6.95840972 1.87487529,6.95840972 L2.65939138,6.95840972 C2.66263269,6.95876657 2.6655469,6.96034262 2.66878821,6.96034262 L3.90777172,6.96034262 C5.2538969,7.0114899 5.8526175,7.59522316 6.19589905,9.19223767 C6.46448177,10.3784978 6.66223145,11.151149 6.81775488,11.6139427 C6.93429337,12.042093 7.16490221,12.6871733 7.56495129,13.0724729 C7.72139656,13.2229114 7.92316071,13.2977886 8.12424091,13.2977886 C8.33587767,13.2977886 8.54748469,13.2150014 8.70586285,13.050319 C8.99609396,12.748669 9.00135737,12.2818608 8.73539149,11.9698624 C8.73417228,11.966175 8.73470754,11.9621308 8.73277465,11.9584434 C8.48720821,11.5028757 8.19016738,10.2809314 7.82773534,8.73102 C7.53964528,7.47074494 7.00143905,6.6857828 6.18587775,6.33723784 C7.20992371,5.94411743 7.91438835,5.19219286 8.19049448,4.23270548 L9.2897448,4.23270548 C9.66802655,4.23270548 9.97434526,3.92600019 9.97434526,3.54783738 C9.97434526,3.16967458 9.66808602,2.86314771 9.28980427,2.86314771 Z" id="Shape"></path>
            </g>
            <g id="india-rupee-currency-symbol-copy-6" transform="translate(45.000000, 55.000000)" fill="#BDBDBD">
                <path d="M9.28980427,2.86314771 L8.2954951,2.86314771 C8.22974705,2.28687838 8.02902369,1.74745294 7.7105129,1.32991862 L9.28977454,1.32991862 C9.66805629,1.32991862 9.974375,1.04744882 9.974375,0.669286016 C9.974375,0.290944789 9.66802655,0.000683946255 9.28977454,0.000683946255 L3.93462404,0.000683946255 C3.9150275,0.000683946255 3.89614463,0 3.87601282,0 C3.86298811,0 3.84993366,0.000683946255 3.83690894,0.000683946255 L1.28397546,0.000683946255 C0.905723449,0.000683946255 0.599375,0.291152947 0.599375,0.669286016 C0.599375,1.04741908 0.905723449,1.32991862 1.28397546,1.32991862 L4.32001289,1.32991862 C5.27881633,1.39971088 6.2831468,1.77064764 6.54768532,2.86314771 L1.28397546,2.86314771 C0.905723449,2.86314771 0.599375,3.16970431 0.599375,3.5480158 C0.599375,3.92617861 0.905723449,4.2328839 1.28397546,4.2328839 L6.47946911,4.2328839 C6.15623016,5.09626197 5.26834898,5.62284111 4.03436125,5.62284111 L2.67277294,5.62284111 L2.66881795,5.62284111 L1.87487529,5.62284111 C1.50610931,5.62284111 1.20713559,5.92181483 1.20713559,6.29058081 C1.20713559,6.659436 1.50610931,6.95840972 1.87487529,6.95840972 L2.65939138,6.95840972 C2.66263269,6.95876657 2.6655469,6.96034262 2.66878821,6.96034262 L3.90777172,6.96034262 C5.2538969,7.0114899 5.8526175,7.59522316 6.19589905,9.19223767 C6.46448177,10.3784978 6.66223145,11.151149 6.81775488,11.6139427 C6.93429337,12.042093 7.16490221,12.6871733 7.56495129,13.0724729 C7.72139656,13.2229114 7.92316071,13.2977886 8.12424091,13.2977886 C8.33587767,13.2977886 8.54748469,13.2150014 8.70586285,13.050319 C8.99609396,12.748669 9.00135737,12.2818608 8.73539149,11.9698624 C8.73417228,11.966175 8.73470754,11.9621308 8.73277465,11.9584434 C8.48720821,11.5028757 8.19016738,10.2809314 7.82773534,8.73102 C7.53964528,7.47074494 7.00143905,6.6857828 6.18587775,6.33723784 C7.20992371,5.94411743 7.91438835,5.19219286 8.19049448,4.23270548 L9.2897448,4.23270548 C9.66802655,4.23270548 9.97434526,3.92600019 9.97434526,3.54783738 C9.97434526,3.16967458 9.66808602,2.86314771 9.28980427,2.86314771 Z" id="Shape"></path>
            </g>
            <g id="india-rupee-currency-symbol-copy-5" transform="translate(61.000000, 55.000000)" fill="#BDBDBD">
                <path d="M9.28980427,2.86314771 L8.2954951,2.86314771 C8.22974705,2.28687838 8.02902369,1.74745294 7.7105129,1.32991862 L9.28977454,1.32991862 C9.66805629,1.32991862 9.974375,1.04744882 9.974375,0.669286016 C9.974375,0.290944789 9.66802655,0.000683946255 9.28977454,0.000683946255 L3.93462404,0.000683946255 C3.9150275,0.000683946255 3.89614463,0 3.87601282,0 C3.86298811,0 3.84993366,0.000683946255 3.83690894,0.000683946255 L1.28397546,0.000683946255 C0.905723449,0.000683946255 0.599375,0.291152947 0.599375,0.669286016 C0.599375,1.04741908 0.905723449,1.32991862 1.28397546,1.32991862 L4.32001289,1.32991862 C5.27881633,1.39971088 6.2831468,1.77064764 6.54768532,2.86314771 L1.28397546,2.86314771 C0.905723449,2.86314771 0.599375,3.16970431 0.599375,3.5480158 C0.599375,3.92617861 0.905723449,4.2328839 1.28397546,4.2328839 L6.47946911,4.2328839 C6.15623016,5.09626197 5.26834898,5.62284111 4.03436125,5.62284111 L2.67277294,5.62284111 L2.66881795,5.62284111 L1.87487529,5.62284111 C1.50610931,5.62284111 1.20713559,5.92181483 1.20713559,6.29058081 C1.20713559,6.659436 1.50610931,6.95840972 1.87487529,6.95840972 L2.65939138,6.95840972 C2.66263269,6.95876657 2.6655469,6.96034262 2.66878821,6.96034262 L3.90777172,6.96034262 C5.2538969,7.0114899 5.8526175,7.59522316 6.19589905,9.19223767 C6.46448177,10.3784978 6.66223145,11.151149 6.81775488,11.6139427 C6.93429337,12.042093 7.16490221,12.6871733 7.56495129,13.0724729 C7.72139656,13.2229114 7.92316071,13.2977886 8.12424091,13.2977886 C8.33587767,13.2977886 8.54748469,13.2150014 8.70586285,13.050319 C8.99609396,12.748669 9.00135737,12.2818608 8.73539149,11.9698624 C8.73417228,11.966175 8.73470754,11.9621308 8.73277465,11.9584434 C8.48720821,11.5028757 8.19016738,10.2809314 7.82773534,8.73102 C7.53964528,7.47074494 7.00143905,6.6857828 6.18587775,6.33723784 C7.20992371,5.94411743 7.91438835,5.19219286 8.19049448,4.23270548 L9.2897448,4.23270548 C9.66802655,4.23270548 9.97434526,3.92600019 9.97434526,3.54783738 C9.97434526,3.16967458 9.66808602,2.86314771 9.28980427,2.86314771 Z" id="Shape"></path>
            </g>
            <g id="india-rupee-currency-symbol-copy-14" transform="translate(0.000000, 103.000000)" fill="#464646">
                <path d="M9.28980427,2.86314771 L8.2954951,2.86314771 C8.22974705,2.28687838 8.02902369,1.74745294 7.7105129,1.32991862 L9.28977454,1.32991862 C9.66805629,1.32991862 9.974375,1.04744882 9.974375,0.669286016 C9.974375,0.290944789 9.66802655,0.000683946255 9.28977454,0.000683946255 L3.93462404,0.000683946255 C3.9150275,0.000683946255 3.89614463,0 3.87601282,0 C3.86298811,0 3.84993366,0.000683946255 3.83690894,0.000683946255 L1.28397546,0.000683946255 C0.905723449,0.000683946255 0.599375,0.291152947 0.599375,0.669286016 C0.599375,1.04741908 0.905723449,1.32991862 1.28397546,1.32991862 L4.32001289,1.32991862 C5.27881633,1.39971088 6.2831468,1.77064764 6.54768532,2.86314771 L1.28397546,2.86314771 C0.905723449,2.86314771 0.599375,3.16970431 0.599375,3.5480158 C0.599375,3.92617861 0.905723449,4.2328839 1.28397546,4.2328839 L6.47946911,4.2328839 C6.15623016,5.09626197 5.26834898,5.62284111 4.03436125,5.62284111 L2.67277294,5.62284111 L2.66881795,5.62284111 L1.87487529,5.62284111 C1.50610931,5.62284111 1.20713559,5.92181483 1.20713559,6.29058081 C1.20713559,6.659436 1.50610931,6.95840972 1.87487529,6.95840972 L2.65939138,6.95840972 C2.66263269,6.95876657 2.6655469,6.96034262 2.66878821,6.96034262 L3.90777172,6.96034262 C5.2538969,7.0114899 5.8526175,7.59522316 6.19589905,9.19223767 C6.46448177,10.3784978 6.66223145,11.151149 6.81775488,11.6139427 C6.93429337,12.042093 7.16490221,12.6871733 7.56495129,13.0724729 C7.72139656,13.2229114 7.92316071,13.2977886 8.12424091,13.2977886 C8.33587767,13.2977886 8.54748469,13.2150014 8.70586285,13.050319 C8.99609396,12.748669 9.00135737,12.2818608 8.73539149,11.9698624 C8.73417228,11.966175 8.73470754,11.9621308 8.73277465,11.9584434 C8.48720821,11.5028757 8.19016738,10.2809314 7.82773534,8.73102 C7.53964528,7.47074494 7.00143905,6.6857828 6.18587775,6.33723784 C7.20992371,5.94411743 7.91438835,5.19219286 8.19049448,4.23270548 L9.2897448,4.23270548 C9.66802655,4.23270548 9.97434526,3.92600019 9.97434526,3.54783738 C9.97434526,3.16967458 9.66808602,2.86314771 9.28980427,2.86314771 Z" id="Shape"></path>
            </g>
            <g id="india-rupee-currency-symbol-copy-13" transform="translate(15.000000, 103.000000)" fill="#464646">
                <path d="M9.28980427,2.86314771 L8.2954951,2.86314771 C8.22974705,2.28687838 8.02902369,1.74745294 7.7105129,1.32991862 L9.28977454,1.32991862 C9.66805629,1.32991862 9.974375,1.04744882 9.974375,0.669286016 C9.974375,0.290944789 9.66802655,0.000683946255 9.28977454,0.000683946255 L3.93462404,0.000683946255 C3.9150275,0.000683946255 3.89614463,0 3.87601282,0 C3.86298811,0 3.84993366,0.000683946255 3.83690894,0.000683946255 L1.28397546,0.000683946255 C0.905723449,0.000683946255 0.599375,0.291152947 0.599375,0.669286016 C0.599375,1.04741908 0.905723449,1.32991862 1.28397546,1.32991862 L4.32001289,1.32991862 C5.27881633,1.39971088 6.2831468,1.77064764 6.54768532,2.86314771 L1.28397546,2.86314771 C0.905723449,2.86314771 0.599375,3.16970431 0.599375,3.5480158 C0.599375,3.92617861 0.905723449,4.2328839 1.28397546,4.2328839 L6.47946911,4.2328839 C6.15623016,5.09626197 5.26834898,5.62284111 4.03436125,5.62284111 L2.67277294,5.62284111 L1.87487529,5.62284111 C1.50610931,5.62284111 1.20713559,5.92181483 1.20713559,6.29058081 C1.20713559,6.659436 1.50610931,6.95840972 1.87487529,6.95840972 L2.65939138,6.95840972 C2.66263269,6.95876657 3.90777172,6.96034262 3.90777172,6.96034262 C5.2538969,7.0114899 5.8526175,7.59522316 6.19589905,9.19223767 C6.46448177,10.3784978 6.66223145,11.151149 6.81775488,11.6139427 C6.93429337,12.042093 7.16490221,12.6871733 7.56495129,13.0724729 C7.72139656,13.2229114 7.92316071,13.2977886 8.12424091,13.2977886 C8.33587767,13.2977886 8.54748469,13.2150014 8.70586285,13.050319 C8.99609396,12.748669 9.00135737,12.2818608 8.73539149,11.9698624 C8.48720821,11.5028757 8.19016738,10.2809314 7.82773534,8.73102 C7.53964528,7.47074494 7.00143905,6.6857828 6.18587775,6.33723784 C7.20992371,5.94411743 7.91438835,5.19219286 8.19049448,4.23270548 L9.2897448,4.23270548 C9.66802655,4.23270548 9.97434526,3.92600019 9.97434526,3.54783738 C9.97434526,3.16967458 9.66808602,2.86314771 9.28980427,2.86314771 Z" id="Shape"></path>
            </g>
            <g id="india-rupee-currency-symbol-copy-12" transform="translate(30.000000, 103.000000)" fill="#464646">
                <path d="M9.28980427,2.86314771 L8.2954951,2.86314771 C8.22974705,2.28687838 8.02902369,1.74745294 7.7105129,1.32991862 L9.28977454,1.32991862 C9.66805629,1.32991862 9.974375,1.04744882 9.974375,0.669286016 C9.974375,0.290944789 9.66802655,0.000683946255 9.28977454,0.000683946255 L3.93462404,0.000683946255 C3.9150275,0.000683946255 3.89614463,0 3.87601282,0 C3.86298811,0 3.84993366,0.000683946255 3.83690894,0.000683946255 L1.28397546,0.000683946255 C0.905723449,0.000683946255 0.599375,0.291152947 0.599375,0.669286016 C0.599375,1.04741908 0.905723449,1.32991862 1.28397546,1.32991862 L4.32001289,1.32991862 C5.27881633,1.39971088 6.2831468,1.77064764 6.54768532,2.86314771 L1.28397546,2.86314771 C0.905723449,2.86314771 0.599375,3.16970431 0.599375,3.5480158 C0.599375,3.92617861 0.905723449,4.2328839 1.28397546,4.2328839 L6.47946911,4.2328839 C6.15623016,5.09626197 5.26834898,5.62284111 4.03436125,5.62284111 L2.67277294,5.62284111 L2.66881795,5.62284111 L1.87487529,5.62284111 C1.50610931,5.62284111 1.20713559,5.92181483 1.20713559,6.29058081 C1.20713559,6.659436 1.50610931,6.95840972 1.87487529,6.95840972 L2.65939138,6.95840972 C2.66263269,6.95876657 2.6655469,6.96034262 2.66878821,6.96034262 L3.90777172,6.96034262 C5.2538969,7.0114899 5.8526175,7.59522316 6.19589905,9.19223767 C6.46448177,10.3784978 6.66223145,11.151149 6.81775488,11.6139427 C6.93429337,12.042093 7.16490221,12.6871733 7.56495129,13.0724729 C7.72139656,13.2229114 7.92316071,13.2977886 8.12424091,13.2977886 C8.33587767,13.2977886 8.54748469,13.2150014 8.70586285,13.050319 C8.99609396,12.748669 9.00135737,12.2818608 8.73539149,11.9698624 C8.73417228,11.966175 8.73470754,11.9621308 8.73277465,11.9584434 C8.48720821,11.5028757 8.19016738,10.2809314 7.82773534,8.73102 C7.53964528,7.47074494 7.00143905,6.6857828 6.18587775,6.33723784 C7.20992371,5.94411743 7.91438835,5.19219286 8.19049448,4.23270548 L9.2897448,4.23270548 C9.66802655,4.23270548 9.97434526,3.92600019 9.97434526,3.54783738 C9.97434526,3.16967458 9.66808602,2.86314771 9.28980427,2.86314771 Z" id="Shape"></path>
            </g>
            <g id="india-rupee-currency-symbol-copy-11" transform="translate(45.000000, 103.000000)" fill="#BDBDBD">
                <path d="M9.28980427,2.86314771 L8.2954951,2.86314771 C8.22974705,2.28687838 8.02902369,1.74745294 7.7105129,1.32991862 L9.28977454,1.32991862 C9.66805629,1.32991862 9.974375,1.04744882 9.974375,0.669286016 C9.974375,0.290944789 9.66802655,0.000683946255 9.28977454,0.000683946255 L3.93462404,0.000683946255 C3.9150275,0.000683946255 3.89614463,0 3.87601282,0 C3.86298811,0 3.84993366,0.000683946255 3.83690894,0.000683946255 L1.28397546,0.000683946255 C0.905723449,0.000683946255 0.599375,0.291152947 0.599375,0.669286016 C0.599375,1.04741908 0.905723449,1.32991862 1.28397546,1.32991862 L4.32001289,1.32991862 C5.27881633,1.39971088 6.2831468,1.77064764 6.54768532,2.86314771 L1.28397546,2.86314771 C0.905723449,2.86314771 0.599375,3.16970431 0.599375,3.5480158 C0.599375,3.92617861 0.905723449,4.2328839 1.28397546,4.2328839 L6.47946911,4.2328839 C6.15623016,5.09626197 5.26834898,5.62284111 4.03436125,5.62284111 L2.67277294,5.62284111 L2.66881795,5.62284111 L1.87487529,5.62284111 C1.50610931,5.62284111 1.20713559,5.92181483 1.20713559,6.29058081 C1.20713559,6.659436 1.50610931,6.95840972 1.87487529,6.95840972 L2.65939138,6.95840972 C2.66263269,6.95876657 2.6655469,6.96034262 2.66878821,6.96034262 L3.90777172,6.96034262 C5.2538969,7.0114899 5.8526175,7.59522316 6.19589905,9.19223767 C6.46448177,10.3784978 6.66223145,11.151149 6.81775488,11.6139427 C6.93429337,12.042093 7.16490221,12.6871733 7.56495129,13.0724729 C7.72139656,13.2229114 7.92316071,13.2977886 8.12424091,13.2977886 C8.33587767,13.2977886 8.54748469,13.2150014 8.70586285,13.050319 C8.99609396,12.748669 9.00135737,12.2818608 8.73539149,11.9698624 C8.73417228,11.966175 8.73470754,11.9621308 8.73277465,11.9584434 C8.48720821,11.5028757 8.19016738,10.2809314 7.82773534,8.73102 C7.53964528,7.47074494 7.00143905,6.6857828 6.18587775,6.33723784 C7.20992371,5.94411743 7.91438835,5.19219286 8.19049448,4.23270548 L9.2897448,4.23270548 C9.66802655,4.23270548 9.97434526,3.92600019 9.97434526,3.54783738 C9.97434526,3.16967458 9.66808602,2.86314771 9.28980427,2.86314771 Z" id="Shape"></path>
            </g>
            <g id="india-rupee-currency-symbol-copy-10" transform="translate(61.000000, 103.000000)" fill="#BDBDBD">
                <path d="M9.28980427,2.86314771 L8.2954951,2.86314771 C8.22974705,2.28687838 8.02902369,1.74745294 7.7105129,1.32991862 L9.28977454,1.32991862 C9.66805629,1.32991862 9.974375,1.04744882 9.974375,0.669286016 C9.974375,0.290944789 9.66802655,0.000683946255 9.28977454,0.000683946255 L3.93462404,0.000683946255 C3.9150275,0.000683946255 3.89614463,0 3.87601282,0 C3.86298811,0 3.84993366,0.000683946255 3.83690894,0.000683946255 L1.28397546,0.000683946255 C0.905723449,0.000683946255 0.599375,0.291152947 0.599375,0.669286016 C0.599375,1.04741908 0.905723449,1.32991862 1.28397546,1.32991862 L4.32001289,1.32991862 C5.27881633,1.39971088 6.2831468,1.77064764 6.54768532,2.86314771 L1.28397546,2.86314771 C0.905723449,2.86314771 0.599375,3.16970431 0.599375,3.5480158 C0.599375,3.92617861 0.905723449,4.2328839 1.28397546,4.2328839 L6.47946911,4.2328839 C6.15623016,5.09626197 5.26834898,5.62284111 4.03436125,5.62284111 L2.67277294,5.62284111 L2.66881795,5.62284111 L1.87487529,5.62284111 C1.50610931,5.62284111 1.20713559,5.92181483 1.20713559,6.29058081 C1.20713559,6.659436 1.50610931,6.95840972 1.87487529,6.95840972 L2.65939138,6.95840972 C2.66263269,6.95876657 2.6655469,6.96034262 2.66878821,6.96034262 L3.90777172,6.96034262 C5.2538969,7.0114899 5.8526175,7.59522316 6.19589905,9.19223767 C6.46448177,10.3784978 6.66223145,11.151149 6.81775488,11.6139427 C6.93429337,12.042093 7.16490221,12.6871733 7.56495129,13.0724729 C7.72139656,13.2229114 7.92316071,13.2977886 8.12424091,13.2977886 C8.33587767,13.2977886 8.54748469,13.2150014 8.70586285,13.050319 C8.99609396,12.748669 9.00135737,12.2818608 8.73539149,11.9698624 C8.73417228,11.966175 8.73470754,11.9621308 8.73277465,11.9584434 C8.48720821,11.5028757 8.19016738,10.2809314 7.82773534,8.73102 C7.53964528,7.47074494 7.00143905,6.6857828 6.18587775,6.33723784 C7.20992371,5.94411743 7.91438835,5.19219286 8.19049448,4.23270548 L9.2897448,4.23270548 C9.66802655,4.23270548 9.97434526,3.92600019 9.97434526,3.54783738 C9.97434526,3.16967458 9.66808602,2.86314771 9.28980427,2.86314771 Z" id="Shape"></path>
            </g>
            <g id="india-rupee-currency-symbol-copy-19" transform="translate(0.000000, 150.000000)" fill="#464646">
                <path d="M9.28980427,2.86314771 L8.2954951,2.86314771 C8.22974705,2.28687838 8.02902369,1.74745294 7.7105129,1.32991862 L9.28977454,1.32991862 C9.66805629,1.32991862 9.974375,1.04744882 9.974375,0.669286016 C9.974375,0.290944789 9.66802655,0.000683946255 9.28977454,0.000683946255 L3.93462404,0.000683946255 C3.9150275,0.000683946255 3.89614463,0 3.87601282,0 C3.86298811,0 3.84993366,0.000683946255 3.83690894,0.000683946255 L1.28397546,0.000683946255 C0.905723449,0.000683946255 0.599375,0.291152947 0.599375,0.669286016 C0.599375,1.04741908 0.905723449,1.32991862 1.28397546,1.32991862 L4.32001289,1.32991862 C5.27881633,1.39971088 6.2831468,1.77064764 6.54768532,2.86314771 L1.28397546,2.86314771 C0.905723449,2.86314771 0.599375,3.16970431 0.599375,3.5480158 C0.599375,3.92617861 0.905723449,4.2328839 1.28397546,4.2328839 L6.47946911,4.2328839 C6.15623016,5.09626197 5.26834898,5.62284111 4.03436125,5.62284111 L2.67277294,5.62284111 L2.66881795,5.62284111 L1.87487529,5.62284111 C1.50610931,5.62284111 1.20713559,5.92181483 1.20713559,6.29058081 C1.20713559,6.659436 1.50610931,6.95840972 1.87487529,6.95840972 L2.65939138,6.95840972 C2.66263269,6.95876657 2.6655469,6.96034262 2.66878821,6.96034262 L3.90777172,6.96034262 C5.2538969,7.0114899 5.8526175,7.59522316 6.19589905,9.19223767 C6.46448177,10.3784978 6.66223145,11.151149 6.81775488,11.6139427 C6.93429337,12.042093 7.16490221,12.6871733 7.56495129,13.0724729 C7.72139656,13.2229114 7.92316071,13.2977886 8.12424091,13.2977886 C8.33587767,13.2977886 8.54748469,13.2150014 8.70586285,13.050319 C8.99609396,12.748669 9.00135737,12.2818608 8.73539149,11.9698624 C8.73417228,11.966175 8.73470754,11.9621308 8.73277465,11.9584434 C8.48720821,11.5028757 8.19016738,10.2809314 7.82773534,8.73102 C7.53964528,7.47074494 7.00143905,6.6857828 6.18587775,6.33723784 C7.20992371,5.94411743 7.91438835,5.19219286 8.19049448,4.23270548 L9.2897448,4.23270548 C9.66802655,4.23270548 9.97434526,3.92600019 9.97434526,3.54783738 C9.97434526,3.16967458 9.66808602,2.86314771 9.28980427,2.86314771 Z" id="Shape"></path>
            </g>
            <g id="india-rupee-currency-symbol-copy-18" transform="translate(15.000000, 150.000000)" fill="#464646">
                <path d="M9.28980427,2.86314771 L8.2954951,2.86314771 C8.22974705,2.28687838 8.02902369,1.74745294 7.7105129,1.32991862 L9.28977454,1.32991862 C9.66805629,1.32991862 9.974375,1.04744882 9.974375,0.669286016 C9.974375,0.290944789 9.66802655,0.000683946255 9.28977454,0.000683946255 L3.93462404,0.000683946255 C3.9150275,0.000683946255 3.89614463,0 3.87601282,0 C3.86298811,0 3.84993366,0.000683946255 3.83690894,0.000683946255 L1.28397546,0.000683946255 C0.905723449,0.000683946255 0.599375,0.291152947 0.599375,0.669286016 C0.599375,1.04741908 0.905723449,1.32991862 1.28397546,1.32991862 L4.32001289,1.32991862 C5.27881633,1.39971088 6.2831468,1.77064764 6.54768532,2.86314771 L1.28397546,2.86314771 C0.905723449,2.86314771 0.599375,3.16970431 0.599375,3.5480158 C0.599375,3.92617861 0.905723449,4.2328839 1.28397546,4.2328839 L6.47946911,4.2328839 C6.15623016,5.09626197 5.26834898,5.62284111 4.03436125,5.62284111 L2.67277294,5.62284111 L2.66881795,5.62284111 L1.87487529,5.62284111 C1.50610931,5.62284111 1.20713559,5.92181483 1.20713559,6.29058081 C1.20713559,6.659436 1.50610931,6.95840972 1.87487529,6.95840972 L2.65939138,6.95840972 C2.66263269,6.95876657 2.6655469,6.96034262 2.66878821,6.96034262 L3.90777172,6.96034262 C5.2538969,7.0114899 5.8526175,7.59522316 6.19589905,9.19223767 C6.46448177,10.3784978 6.66223145,11.151149 6.81775488,11.6139427 C6.93429337,12.042093 7.16490221,12.6871733 7.56495129,13.0724729 C7.72139656,13.2229114 7.92316071,13.2977886 8.12424091,13.2977886 C8.33587767,13.2977886 8.54748469,13.2150014 8.70586285,13.050319 C8.99609396,12.748669 9.00135737,12.2818608 8.73539149,11.9698624 C8.73417228,11.966175 8.73470754,11.9621308 8.73277465,11.9584434 C8.48720821,11.5028757 8.19016738,10.2809314 7.82773534,8.73102 C7.53964528,7.47074494 7.00143905,6.6857828 6.18587775,6.33723784 C7.20992371,5.94411743 7.91438835,5.19219286 8.19049448,4.23270548 L9.2897448,4.23270548 C9.66802655,4.23270548 9.97434526,3.92600019 9.97434526,3.54783738 C9.97434526,3.16967458 9.66808602,2.86314771 9.28980427,2.86314771 Z" id="Shape"></path>
            </g>
            <g id="india-rupee-currency-symbol-copy-17" transform="translate(30.000000, 150.000000)" fill="#464646">
                <path d="M9.28980427,2.86314771 L8.2954951,2.86314771 C8.22974705,2.28687838 8.02902369,1.74745294 7.7105129,1.32991862 L9.28977454,1.32991862 C9.66805629,1.32991862 9.974375,1.04744882 9.974375,0.669286016 C9.974375,0.290944789 9.66802655,0.000683946255 9.28977454,0.000683946255 L3.93462404,0.000683946255 C3.9150275,0.000683946255 3.89614463,0 3.87601282,0 C3.86298811,0 3.84993366,0.000683946255 3.83690894,0.000683946255 L1.28397546,0.000683946255 C0.905723449,0.000683946255 0.599375,0.291152947 0.599375,0.669286016 C0.599375,1.04741908 0.905723449,1.32991862 1.28397546,1.32991862 L4.32001289,1.32991862 C5.27881633,1.39971088 6.2831468,1.77064764 6.54768532,2.86314771 L1.28397546,2.86314771 C0.905723449,2.86314771 0.599375,3.16970431 0.599375,3.5480158 C0.599375,3.92617861 0.905723449,4.2328839 1.28397546,4.2328839 L6.47946911,4.2328839 C6.15623016,5.09626197 5.26834898,5.62284111 4.03436125,5.62284111 L2.67277294,5.62284111 L2.66881795,5.62284111 L1.87487529,5.62284111 C1.50610931,5.62284111 1.20713559,5.92181483 1.20713559,6.29058081 C1.20713559,6.659436 1.50610931,6.95840972 1.87487529,6.95840972 L2.65939138,6.95840972 C2.66263269,6.95876657 2.6655469,6.96034262 2.66878821,6.96034262 L3.90777172,6.96034262 C5.2538969,7.0114899 5.8526175,7.59522316 6.19589905,9.19223767 C6.46448177,10.3784978 6.66223145,11.151149 6.81775488,11.6139427 C6.93429337,12.042093 7.16490221,12.6871733 7.56495129,13.0724729 C7.72139656,13.2229114 7.92316071,13.2977886 8.12424091,13.2977886 C8.33587767,13.2977886 8.54748469,13.2150014 8.70586285,13.050319 C8.99609396,12.748669 9.00135737,12.2818608 8.73539149,11.9698624 C8.73417228,11.966175 8.73470754,11.9621308 8.73277465,11.9584434 C8.48720821,11.5028757 8.19016738,10.2809314 7.82773534,8.73102 C7.53964528,7.47074494 7.00143905,6.6857828 6.18587775,6.33723784 C7.20992371,5.94411743 7.91438835,5.19219286 8.19049448,4.23270548 L9.2897448,4.23270548 C9.66802655,4.23270548 9.97434526,3.92600019 9.97434526,3.54783738 C9.97434526,3.16967458 9.66808602,2.86314771 9.28980427,2.86314771 Z" id="Shape"></path>
            </g>
            <g id="india-rupee-currency-symbol-copy-16" transform="translate(45.000000, 150.000000)" fill="#464646">
                <path d="M9.28980427,2.86314771 L8.2954951,2.86314771 C8.22974705,2.28687838 8.02902369,1.74745294 7.7105129,1.32991862 L9.28977454,1.32991862 C9.66805629,1.32991862 9.974375,1.04744882 9.974375,0.669286016 C9.974375,0.290944789 9.66802655,0.000683946255 9.28977454,0.000683946255 L3.93462404,0.000683946255 C3.9150275,0.000683946255 3.89614463,0 3.87601282,0 C3.86298811,0 3.84993366,0.000683946255 3.83690894,0.000683946255 L1.28397546,0.000683946255 C0.905723449,0.000683946255 0.599375,0.291152947 0.599375,0.669286016 C0.599375,1.04741908 0.905723449,1.32991862 1.28397546,1.32991862 L4.32001289,1.32991862 C5.27881633,1.39971088 6.2831468,1.77064764 6.54768532,2.86314771 L1.28397546,2.86314771 C0.905723449,2.86314771 0.599375,3.16970431 0.599375,3.5480158 C0.599375,3.92617861 0.905723449,4.2328839 1.28397546,4.2328839 L6.47946911,4.2328839 C6.15623016,5.09626197 5.26834898,5.62284111 4.03436125,5.62284111 L2.67277294,5.62284111 L2.66881795,5.62284111 L1.87487529,5.62284111 C1.50610931,5.62284111 1.20713559,5.92181483 1.20713559,6.29058081 C1.20713559,6.659436 1.50610931,6.95840972 1.87487529,6.95840972 L2.65939138,6.95840972 C2.66263269,6.95876657 2.6655469,6.96034262 2.66878821,6.96034262 L3.90777172,6.96034262 C5.2538969,7.0114899 5.8526175,7.59522316 6.19589905,9.19223767 C6.46448177,10.3784978 6.66223145,11.151149 6.81775488,11.6139427 C6.93429337,12.042093 7.16490221,12.6871733 7.56495129,13.0724729 C7.72139656,13.2229114 7.92316071,13.2977886 8.12424091,13.2977886 C8.33587767,13.2977886 8.54748469,13.2150014 8.70586285,13.050319 C8.99609396,12.748669 9.00135737,12.2818608 8.73539149,11.9698624 C8.73417228,11.966175 8.73470754,11.9621308 8.73277465,11.9584434 C8.48720821,11.5028757 8.19016738,10.2809314 7.82773534,8.73102 C7.53964528,7.47074494 7.00143905,6.6857828 6.18587775,6.33723784 C7.20992371,5.94411743 7.91438835,5.19219286 8.19049448,4.23270548 L9.2897448,4.23270548 C9.66802655,4.23270548 9.97434526,3.92600019 9.97434526,3.54783738 C9.97434526,3.16967458 9.66808602,2.86314771 9.28980427,2.86314771 Z" id="Shape"></path>
            </g>
            <g id="india-rupee-currency-symbol-copy-15" transform="translate(61.000000, 150.000000)" fill="#BDBDBD">
                <path d="M9.28980427,2.86314771 L8.2954951,2.86314771 C8.22974705,2.28687838 8.02902369,1.74745294 7.7105129,1.32991862 L9.28977454,1.32991862 C9.66805629,1.32991862 9.974375,1.04744882 9.974375,0.669286016 C9.974375,0.290944789 9.66802655,0.000683946255 9.28977454,0.000683946255 L3.93462404,0.000683946255 C3.9150275,0.000683946255 3.89614463,0 3.87601282,0 C3.86298811,0 3.84993366,0.000683946255 3.83690894,0.000683946255 L1.28397546,0.000683946255 C0.905723449,0.000683946255 0.599375,0.291152947 0.599375,0.669286016 C0.599375,1.04741908 0.905723449,1.32991862 1.28397546,1.32991862 L4.32001289,1.32991862 C5.27881633,1.39971088 6.2831468,1.77064764 6.54768532,2.86314771 L1.28397546,2.86314771 C0.905723449,2.86314771 0.599375,3.16970431 0.599375,3.5480158 C0.599375,3.92617861 0.905723449,4.2328839 1.28397546,4.2328839 L6.47946911,4.2328839 C6.15623016,5.09626197 5.26834898,5.62284111 4.03436125,5.62284111 L2.67277294,5.62284111 L2.66881795,5.62284111 L1.87487529,5.62284111 C1.50610931,5.62284111 1.20713559,5.92181483 1.20713559,6.29058081 C1.20713559,6.659436 1.50610931,6.95840972 1.87487529,6.95840972 L2.65939138,6.95840972 C2.66263269,6.95876657 2.6655469,6.96034262 2.66878821,6.96034262 L3.90777172,6.96034262 C5.2538969,7.0114899 5.8526175,7.59522316 6.19589905,9.19223767 C6.46448177,10.3784978 6.66223145,11.151149 6.81775488,11.6139427 C6.93429337,12.042093 7.16490221,12.6871733 7.56495129,13.0724729 C7.72139656,13.2229114 7.92316071,13.2977886 8.12424091,13.2977886 C8.33587767,13.2977886 8.54748469,13.2150014 8.70586285,13.050319 C8.99609396,12.748669 9.00135737,12.2818608 8.73539149,11.9698624 C8.73417228,11.966175 8.73470754,11.9621308 8.73277465,11.9584434 C8.48720821,11.5028757 8.19016738,10.2809314 7.82773534,8.73102 C7.53964528,7.47074494 7.00143905,6.6857828 6.18587775,6.33723784 C7.20992371,5.94411743 7.91438835,5.19219286 8.19049448,4.23270548 L9.2897448,4.23270548 C9.66802655,4.23270548 9.97434526,3.92600019 9.97434526,3.54783738 C9.97434526,3.16967458 9.66808602,2.86314771 9.28980427,2.86314771 Z" id="Shape"></path>
            </g>
            <g id="india-rupee-currency-symbol-copy-24" transform="translate(0.000000, 196.000000)" fill="#464646">
                <path d="M9.28980427,2.86314771 L8.2954951,2.86314771 C8.22974705,2.28687838 8.02902369,1.74745294 7.7105129,1.32991862 L9.28977454,1.32991862 C9.66805629,1.32991862 9.974375,1.04744882 9.974375,0.669286016 C9.974375,0.290944789 9.66802655,0.000683946255 9.28977454,0.000683946255 L3.93462404,0.000683946255 C3.9150275,0.000683946255 3.89614463,0 3.87601282,0 C3.86298811,0 3.84993366,0.000683946255 3.83690894,0.000683946255 L1.28397546,0.000683946255 C0.905723449,0.000683946255 0.599375,0.291152947 0.599375,0.669286016 C0.599375,1.04741908 0.905723449,1.32991862 1.28397546,1.32991862 L4.32001289,1.32991862 C5.27881633,1.39971088 6.2831468,1.77064764 6.54768532,2.86314771 L1.28397546,2.86314771 C0.905723449,2.86314771 0.599375,3.16970431 0.599375,3.5480158 C0.599375,3.92617861 0.905723449,4.2328839 1.28397546,4.2328839 L6.47946911,4.2328839 C6.15623016,5.09626197 5.26834898,5.62284111 4.03436125,5.62284111 L2.67277294,5.62284111 L2.66881795,5.62284111 L1.87487529,5.62284111 C1.50610931,5.62284111 1.20713559,5.92181483 1.20713559,6.29058081 C1.20713559,6.659436 1.50610931,6.95840972 1.87487529,6.95840972 L2.65939138,6.95840972 C2.66263269,6.95876657 2.6655469,6.96034262 2.66878821,6.96034262 L3.90777172,6.96034262 C5.2538969,7.0114899 5.8526175,7.59522316 6.19589905,9.19223767 C6.46448177,10.3784978 6.66223145,11.151149 6.81775488,11.6139427 C6.93429337,12.042093 7.16490221,12.6871733 7.56495129,13.0724729 C7.72139656,13.2229114 7.92316071,13.2977886 8.12424091,13.2977886 C8.33587767,13.2977886 8.54748469,13.2150014 8.70586285,13.050319 C8.99609396,12.748669 9.00135737,12.2818608 8.73539149,11.9698624 C8.73417228,11.966175 8.73470754,11.9621308 8.73277465,11.9584434 C8.48720821,11.5028757 8.19016738,10.2809314 7.82773534,8.73102 C7.53964528,7.47074494 7.00143905,6.6857828 6.18587775,6.33723784 C7.20992371,5.94411743 7.91438835,5.19219286 8.19049448,4.23270548 L9.2897448,4.23270548 C9.66802655,4.23270548 9.97434526,3.92600019 9.97434526,3.54783738 C9.97434526,3.16967458 9.66808602,2.86314771 9.28980427,2.86314771 Z" id="Shape"></path>
            </g>
            <g id="india-rupee-currency-symbol-copy-23" transform="translate(15.000000, 196.000000)" fill="#464646">
                <path d="M9.28980427,2.86314771 L8.2954951,2.86314771 C8.22974705,2.28687838 8.02902369,1.74745294 7.7105129,1.32991862 L9.28977454,1.32991862 C9.66805629,1.32991862 9.974375,1.04744882 9.974375,0.669286016 C9.974375,0.290944789 9.66802655,0.000683946255 9.28977454,0.000683946255 L3.93462404,0.000683946255 C3.9150275,0.000683946255 3.89614463,0 3.87601282,0 C3.86298811,0 3.84993366,0.000683946255 3.83690894,0.000683946255 L1.28397546,0.000683946255 C0.905723449,0.000683946255 0.599375,0.291152947 0.599375,0.669286016 C0.599375,1.04741908 0.905723449,1.32991862 1.28397546,1.32991862 L4.32001289,1.32991862 C5.27881633,1.39971088 6.2831468,1.77064764 6.54768532,2.86314771 L1.28397546,2.86314771 C0.905723449,2.86314771 0.599375,3.16970431 0.599375,3.5480158 C0.599375,3.92617861 0.905723449,4.2328839 1.28397546,4.2328839 L6.47946911,4.2328839 C6.15623016,5.09626197 5.26834898,5.62284111 4.03436125,5.62284111 L2.67277294,5.62284111 L2.66881795,5.62284111 L1.87487529,5.62284111 C1.50610931,5.62284111 1.20713559,5.92181483 1.20713559,6.29058081 C1.20713559,6.659436 1.50610931,6.95840972 1.87487529,6.95840972 L2.65939138,6.95840972 C2.66263269,6.95876657 2.6655469,6.96034262 2.66878821,6.96034262 L3.90777172,6.96034262 C5.2538969,7.0114899 5.8526175,7.59522316 6.19589905,9.19223767 C6.46448177,10.3784978 6.66223145,11.151149 6.81775488,11.6139427 C6.93429337,12.042093 7.16490221,12.6871733 7.56495129,13.0724729 C7.72139656,13.2229114 7.92316071,13.2977886 8.12424091,13.2977886 C8.33587767,13.2977886 8.54748469,13.2150014 8.70586285,13.050319 C8.99609396,12.748669 9.00135737,12.2818608 8.73539149,11.9698624 C8.73417228,11.966175 8.73470754,11.9621308 8.73277465,11.9584434 C8.48720821,11.5028757 8.19016738,10.2809314 7.82773534,8.73102 C7.53964528,7.47074494 7.00143905,6.6857828 6.18587775,6.33723784 C7.20992371,5.94411743 7.91438835,5.19219286 8.19049448,4.23270548 L9.2897448,4.23270548 C9.66802655,4.23270548 9.97434526,3.92600019 9.97434526,3.54783738 C9.97434526,3.16967458 9.66808602,2.86314771 9.28980427,2.86314771 Z" id="Shape"></path>
            </g>
            <g id="india-rupee-currency-symbol-copy-22" transform="translate(30.000000, 196.000000)" fill="#464646">
                <path d="M9.28980427,2.86314771 L8.2954951,2.86314771 C8.22974705,2.28687838 8.02902369,1.74745294 7.7105129,1.32991862 L9.28977454,1.32991862 C9.66805629,1.32991862 9.974375,1.04744882 9.974375,0.669286016 C9.974375,0.290944789 9.66802655,0.000683946255 9.28977454,0.000683946255 L3.93462404,0.000683946255 C3.9150275,0.000683946255 3.89614463,0 3.87601282,0 C3.86298811,0 3.84993366,0.000683946255 3.83690894,0.000683946255 L1.28397546,0.000683946255 C0.905723449,0.000683946255 0.599375,0.291152947 0.599375,0.669286016 C0.599375,1.04741908 0.905723449,1.32991862 1.28397546,1.32991862 L4.32001289,1.32991862 C5.27881633,1.39971088 6.2831468,1.77064764 6.54768532,2.86314771 L1.28397546,2.86314771 C0.905723449,2.86314771 0.599375,3.16970431 0.599375,3.5480158 C0.599375,3.92617861 0.905723449,4.2328839 1.28397546,4.2328839 L6.47946911,4.2328839 C6.15623016,5.09626197 5.26834898,5.62284111 4.03436125,5.62284111 L2.67277294,5.62284111 L2.66881795,5.62284111 L1.87487529,5.62284111 C1.50610931,5.62284111 1.20713559,5.92181483 1.20713559,6.29058081 C1.20713559,6.659436 1.50610931,6.95840972 1.87487529,6.95840972 L2.65939138,6.95840972 C2.66263269,6.95876657 2.6655469,6.96034262 2.66878821,6.96034262 L3.90777172,6.96034262 C5.2538969,7.0114899 5.8526175,7.59522316 6.19589905,9.19223767 C6.46448177,10.3784978 6.66223145,11.151149 6.81775488,11.6139427 C6.93429337,12.042093 7.16490221,12.6871733 7.56495129,13.0724729 C7.72139656,13.2229114 7.92316071,13.2977886 8.12424091,13.2977886 C8.33587767,13.2977886 8.54748469,13.2150014 8.70586285,13.050319 C8.99609396,12.748669 9.00135737,12.2818608 8.73539149,11.9698624 C8.73417228,11.966175 8.73470754,11.9621308 8.73277465,11.9584434 C8.48720821,11.5028757 8.19016738,10.2809314 7.82773534,8.73102 C7.53964528,7.47074494 7.00143905,6.6857828 6.18587775,6.33723784 C7.20992371,5.94411743 7.91438835,5.19219286 8.19049448,4.23270548 L9.2897448,4.23270548 C9.66802655,4.23270548 9.97434526,3.92600019 9.97434526,3.54783738 C9.97434526,3.16967458 9.66808602,2.86314771 9.28980427,2.86314771 Z" id="Shape"></path>
            </g>
            <g id="india-rupee-currency-symbol-copy-21" transform="translate(45.000000, 196.000000)" fill="#464646">
                <path d="M9.28980427,2.86314771 L8.2954951,2.86314771 C8.22974705,2.28687838 8.02902369,1.74745294 7.7105129,1.32991862 L9.28977454,1.32991862 C9.66805629,1.32991862 9.974375,1.04744882 9.974375,0.669286016 C9.974375,0.290944789 9.66802655,0.000683946255 9.28977454,0.000683946255 L3.93462404,0.000683946255 C3.9150275,0.000683946255 3.89614463,0 3.87601282,0 C3.86298811,0 3.84993366,0.000683946255 3.83690894,0.000683946255 L1.28397546,0.000683946255 C0.905723449,0.000683946255 0.599375,0.291152947 0.599375,0.669286016 C0.599375,1.04741908 0.905723449,1.32991862 1.28397546,1.32991862 L4.32001289,1.32991862 C5.27881633,1.39971088 6.2831468,1.77064764 6.54768532,2.86314771 L1.28397546,2.86314771 C0.905723449,2.86314771 0.599375,3.16970431 0.599375,3.5480158 C0.599375,3.92617861 0.905723449,4.2328839 1.28397546,4.2328839 L6.47946911,4.2328839 C6.15623016,5.09626197 5.26834898,5.62284111 4.03436125,5.62284111 L2.67277294,5.62284111 L2.66881795,5.62284111 L1.87487529,5.62284111 C1.50610931,5.62284111 1.20713559,5.92181483 1.20713559,6.29058081 C1.20713559,6.659436 1.50610931,6.95840972 1.87487529,6.95840972 L2.65939138,6.95840972 C2.66263269,6.95876657 2.6655469,6.96034262 2.66878821,6.96034262 L3.90777172,6.96034262 C5.2538969,7.0114899 5.8526175,7.59522316 6.19589905,9.19223767 C6.46448177,10.3784978 6.66223145,11.151149 6.81775488,11.6139427 C6.93429337,12.042093 7.16490221,12.6871733 7.56495129,13.0724729 C7.72139656,13.2229114 7.92316071,13.2977886 8.12424091,13.2977886 C8.33587767,13.2977886 8.54748469,13.2150014 8.70586285,13.050319 C8.99609396,12.748669 9.00135737,12.2818608 8.73539149,11.9698624 C8.73417228,11.966175 8.73470754,11.9621308 8.73277465,11.9584434 C8.48720821,11.5028757 8.19016738,10.2809314 7.82773534,8.73102 C7.53964528,7.47074494 7.00143905,6.6857828 6.18587775,6.33723784 C7.20992371,5.94411743 7.91438835,5.19219286 8.19049448,4.23270548 L9.2897448,4.23270548 C9.66802655,4.23270548 9.97434526,3.92600019 9.97434526,3.54783738 C9.97434526,3.16967458 9.66808602,2.86314771 9.28980427,2.86314771 Z" id="Shape"></path>
            </g>
            <g id="india-rupee-currency-symbol-copy-20" transform="translate(61.000000, 196.000000)" fill="#464646">
                <path d="M9.28980427,2.86314771 L8.2954951,2.86314771 C8.22974705,2.28687838 8.02902369,1.74745294 7.7105129,1.32991862 L9.28977454,1.32991862 C9.66805629,1.32991862 9.974375,1.04744882 9.974375,0.669286016 C9.974375,0.290944789 9.66802655,0.000683946255 9.28977454,0.000683946255 L3.93462404,0.000683946255 C3.9150275,0.000683946255 3.89614463,0 3.87601282,0 C3.86298811,0 3.84993366,0.000683946255 3.83690894,0.000683946255 L1.28397546,0.000683946255 C0.905723449,0.000683946255 0.599375,0.291152947 0.599375,0.669286016 C0.599375,1.04741908 0.905723449,1.32991862 1.28397546,1.32991862 L4.32001289,1.32991862 C5.27881633,1.39971088 6.2831468,1.77064764 6.54768532,2.86314771 L1.28397546,2.86314771 C0.905723449,2.86314771 0.599375,3.16970431 0.599375,3.5480158 C0.599375,3.92617861 0.905723449,4.2328839 1.28397546,4.2328839 L6.47946911,4.2328839 C6.15623016,5.09626197 5.26834898,5.62284111 4.03436125,5.62284111 L2.67277294,5.62284111 L2.66881795,5.62284111 L1.87487529,5.62284111 C1.50610931,5.62284111 1.20713559,5.92181483 1.20713559,6.29058081 C1.20713559,6.659436 1.50610931,6.95840972 1.87487529,6.95840972 L2.65939138,6.95840972 C2.66263269,6.95876657 2.6655469,6.96034262 2.66878821,6.96034262 L3.90777172,6.96034262 C5.2538969,7.0114899 5.8526175,7.59522316 6.19589905,9.19223767 C6.46448177,10.3784978 6.66223145,11.151149 6.81775488,11.6139427 C6.93429337,12.042093 7.16490221,12.6871733 7.56495129,13.0724729 C7.72139656,13.2229114 7.92316071,13.2977886 8.12424091,13.2977886 C8.33587767,13.2977886 8.54748469,13.2150014 8.70586285,13.050319 C8.99609396,12.748669 9.00135737,12.2818608 8.73539149,11.9698624 C8.73417228,11.966175 8.73470754,11.9621308 8.73277465,11.9584434 C8.48720821,11.5028757 8.19016738,10.2809314 7.82773534,8.73102 C7.53964528,7.47074494 7.00143905,6.6857828 6.18587775,6.33723784 C7.20992371,5.94411743 7.91438835,5.19219286 8.19049448,4.23270548 L9.2897448,4.23270548 C9.66802655,4.23270548 9.97434526,3.92600019 9.97434526,3.54783738 C9.97434526,3.16967458 9.66808602,2.86314771 9.28980427,2.86314771 Z" id="Shape"></path>
            </g>
        </g>
    </g>
</svg>