<?xml version="1.0" encoding="UTF-8"?>
<svg width="103px" height="397px" viewBox="0 0 103 397" version="1.1" xmlns="http://www.w3.org/2000/svg" xmlns:xlink="http://www.w3.org/1999/xlink">
    <!-- Generator: Sketch 43 (38999) - http://www.bohemiancoding.com/sketch -->
    <title>Group 8</title>
    <desc>Created with Sketch.</desc>
    <defs></defs>
    <g id="web+wap+pwa" stroke="none" stroke-width="1" fill="none" fill-rule="evenodd">
        <g id="Group-8">
            <polygon id="Shape-Copy-2-Copy-25" stroke="#F5A623" fill="#FFCD00" points="10.3767187 9.19921872 15 5.625 9.375 5.625 7.5 0 5.625 5.625 0 5.625 4.62890625 9.1846875 2.8125 15 7.5075 11.4 12.19125 15"></polygon>
            <polygon id="Shape-Copy-2-Copy-24" stroke="#F5A623" fill="#FFCD00" points="32.3767187 9.19921872 37 5.625 31.375 5.625 29.5 0 27.625 5.625 22 5.625 26.6289062 9.1846875 24.8125 15 29.5075 11.4 34.19125 15"></polygon>
            <polygon id="Shape-Copy-2-Copy-23" stroke="#F5A623" fill="#FFCD00" points="54.3767187 9.19921872 59 5.625 53.375 5.625 51.5 0 49.625 5.625 44 5.625 48.6289062 9.1846875 46.8125 15 51.5075 11.4 56.19125 15"></polygon>
            <polygon id="Shape-Copy-2-Copy-22" stroke="#F5A623" fill="#FFCD00" points="76.3767187 9.19921872 81 5.625 75.375 5.625 73.5 0 71.625 5.625 66 5.625 70.6289062 9.1846875 68.8125 15 73.5075 11.4 78.19125 15"></polygon>
            <polygon id="Shape-Copy-2-Copy-21" stroke="#F5A623" fill="#FFCD00" points="98.3767187 9.19921872 103 5.625 97.375 5.625 95.5 0 93.625 5.625 88 5.625 92.6289062 9.1846875 90.8125 15 95.5075 11.4 100.19125 15"></polygon>
            <polygon id="Shape-Copy-2-Copy-30" stroke="#F5A623" fill="#FFCD00" points="10.3767187 43.1992187 15 39.625 9.375 39.625 7.5 34 5.625 39.625 0 39.625 4.62890625 43.1846875 2.8125 49 7.5075 45.4 12.19125 49"></polygon>
            <polygon id="Shape-Copy-2-Copy-29" stroke="#F5A623" fill="#FFCD00" points="32.3767187 43.1992187 37 39.625 31.375 39.625 29.5 34 27.625 39.625 22 39.625 26.6289062 43.1846875 24.8125 49 29.5075 45.4 34.19125 49"></polygon>
            <polygon id="Shape-Copy-2-Copy-28" stroke="#F5A623" fill="#FFCD00" points="54.3767187 43.1992187 59 39.625 53.375 39.625 51.5 34 49.625 39.625 44 39.625 48.6289062 43.1846875 46.8125 49 51.5075 45.4 56.19125 49"></polygon>
            <polygon id="Shape-Copy-2-Copy-27" stroke="#F5A623" fill="#FFCD00" points="76.3767187 43.1992187 81 39.625 75.375 39.625 73.5 34 71.625 39.625 66 39.625 70.6289062 43.1846875 68.8125 49 73.5075 45.4 78.19125 49"></polygon>
            <polygon id="Shape-Copy-2-Copy-35" stroke="#F5A623" fill="#FFCD00" points="10.3767187 83.1992187 15 79.625 9.375 79.625 7.5 74 5.625 79.625 0 79.625 4.62890625 83.1846875 2.8125 89 7.5075 85.4 12.19125 89"></polygon>
            <polygon id="Shape-Copy-2-Copy-34" stroke="#F5A623" fill="#FFCD00" points="32.3767187 83.1992187 37 79.625 31.375 79.625 29.5 74 27.625 79.625 22 79.625 26.6289062 83.1846875 24.8125 89 29.5075 85.4 34.19125 89"></polygon>
            <polygon id="Shape-Copy-2-Copy-33" stroke="#F5A623" fill="#FFCD00" points="54.3767187 83.1992187 59 79.625 53.375 79.625 51.5 74 49.625 79.625 44 79.625 48.6289062 83.1846875 46.8125 89 51.5075 85.4 56.19125 89"></polygon>
            <polygon id="Shape-Copy-2-Copy-32" stroke="#F5A623" fill="#FFCD00" points="76.3767187 83.1992187 81 79.625 75.375 79.625 73.5 74 71.625 79.625 66 79.625 70.6289062 83.1846875 68.8125 89 73.5075 85.4 78.19125 89"></polygon>
            <polygon id="Shape-Copy-2-Copy-40" stroke="#F5A623" fill="#FFCD00" points="10.3767187 123.199219 15 119.625 9.375 119.625 7.5 114 5.625 119.625 0 119.625 4.62890625 123.184687 2.8125 129 7.5075 125.4 12.19125 129"></polygon>
            <polygon id="Shape-Copy-2-Copy-39" stroke="#F5A623" fill="#FFCD00" points="32.3767187 123.199219 37 119.625 31.375 119.625 29.5 114 27.625 119.625 22 119.625 26.6289062 123.184687 24.8125 129 29.5075 125.4 34.19125 129"></polygon>
            <polygon id="Shape-Copy-2-Copy-38" stroke="#F5A623" fill="#FFCD00" points="54.3767187 123.199219 59 119.625 53.375 119.625 51.5 114 49.625 119.625 44 119.625 48.6289062 123.184687 46.8125 129 51.5075 125.4 56.19125 129"></polygon>
            <polygon id="Shape-Copy-2-Copy-45" stroke="#F5A623" fill="#FFCD00" points="10.3767187 163.199219 15 159.625 9.375 159.625 7.5 154 5.625 159.625 0 159.625 4.62890625 163.184687 2.8125 169 7.5075 165.4 12.19125 169"></polygon>
            <polygon id="Shape-Copy-2-Copy-44" stroke="#F5A623" fill="#FFCD00" points="32.3767187 163.199219 37 159.625 31.375 159.625 29.5 154 27.625 159.625 22 159.625 26.6289062 163.184687 24.8125 169 29.5075 165.4 34.19125 169"></polygon>
            <polygon id="Shape-Copy-2-Copy-43" stroke="#F5A623" fill="#FFCD00" points="54.3767187 163.199219 59 159.625 53.375 159.625 51.5 154 49.625 159.625 44 159.625 48.6289062 163.184687 46.8125 169 51.5075 165.4 56.19125 169"></polygon>
            <polygon id="Shape-Copy-2-Copy-75" stroke="#F5A623" fill="#FFCD00" points="10.3767187 201.199219 15 197.625 9.375 197.625 7.5 192 5.625 197.625 0 197.625 4.62890625 201.184687 2.8125 207 7.5075 203.4 12.19125 207"></polygon>
            <polygon id="Shape-Copy-2-Copy-74" stroke="#F5A623" fill="#FFCD00" points="32.3767187 201.199219 37 197.625 31.375 197.625 29.5 192 27.625 197.625 22 197.625 26.6289062 201.184687 24.8125 207 29.5075 203.4 34.19125 207"></polygon>
            <polygon id="Shape-Copy-2-Copy-72" stroke="#F5A623" fill="#FFCD00" points="76.3767187 201.199219 81 197.625 75.375 197.625 73.5 192 71.625 197.625 66 197.625 70.6289062 201.184687 68.8125 207 73.5075 203.4 78.19125 207"></polygon>
            <polygon id="Shape-Copy-2-Copy-71" stroke="#F5A623" fill="#FFCD00" points="98.3767187 201.199219 103 197.625 97.375 197.625 95.5 192 93.625 197.625 88 197.625 92.6289062 201.184687 90.8125 207 95.5075 203.4 100.19125 207"></polygon>
            <polygon id="Shape-Copy-2-Copy-70" stroke="#F5A623" fill="#FFCD00" points="10.3767187 236.199219 15 232.625 9.375 232.625 7.5 227 5.625 232.625 0 232.625 4.62890625 236.184687 2.8125 242 7.5075 238.4 12.19125 242"></polygon>
            <polygon id="Shape-Copy-2-Copy-69" stroke="#F5A623" fill="#FFCD00" points="32.3767187 236.199219 37 232.625 31.375 232.625 29.5 227 27.625 232.625 22 232.625 26.6289062 236.184687 24.8125 242 29.5075 238.4 34.19125 242"></polygon>
            <polygon id="Shape-Copy-2-Copy-65" stroke="#F5A623" fill="#FFCD00" points="10.3767187 270.199219 15 266.625 9.375 266.625 7.5 261 5.625 266.625 0 266.625 4.62890625 270.184687 2.8125 276 7.5075 272.4 12.19125 276"></polygon>
            <polygon id="Shape-Copy-2-Copy-60" stroke="#F5A623" fill="#FFCD00" points="10.3767187 310.199219 15 306.625 9.375 306.625 7.5 301 5.625 306.625 0 306.625 4.62890625 310.184687 2.8125 316 7.5075 312.4 12.19125 316"></polygon>
            <polygon id="Shape-Copy-9" stroke="#C8C8C8" points="32.3767187 390.199219 37 386.625 31.375 386.625 29.5 381 27.625 386.625 22 386.625 26.6289062 390.184687 24.8125 396 29.5075 392.4 34.19125 396"></polygon>
            <polygon id="Shape-Copy-9-Copy-3" stroke="#C8C8C8" points="10.3767187 390.199219 15 386.625 9.375 386.625 7.5 381 5.625 386.625 0 386.625 4.62890625 390.184687 2.8125 396 7.5075 392.4 12.19125 396"></polygon>
            <polygon id="Shape-Copy-9-Copy-4" stroke="#C8C8C8" points="54.3767187 390.199219 59 386.625 53.375 386.625 51.5 381 49.625 386.625 44 386.625 48.6289062 390.184687 46.8125 396 51.5075 392.4 56.19125 396"></polygon>
            <polygon id="Shape-Copy-9-Copy-5" stroke="#C8C8C8" points="76.3767187 390.199219 81 386.625 75.375 386.625 73.5 381 71.625 386.625 66 386.625 70.6289062 390.184687 68.8125 396 73.5075 392.4 78.19125 396"></polygon>
            <polygon id="Shape-Copy-9-Copy-6" stroke="#C8C8C8" points="98.3767187 390.199219 103 386.625 97.375 386.625 95.5 381 93.625 386.625 88 386.625 92.6289062 390.184687 90.8125 396 95.5075 392.4 100.19125 396"></polygon>
            <polygon id="Shape-Copy-9-Copy" stroke="#C8C8C8" points="32.3767187 350.199219 37 346.625 31.375 346.625 29.5 341 27.625 346.625 22 346.625 26.6289062 350.184687 24.8125 356 29.5075 352.4 34.19125 356"></polygon>
            <polygon id="Shape-Copy-9-Copy-9" stroke="#C8C8C8" points="54.3767187 350.199219 59 346.625 53.375 346.625 51.5 341 49.625 346.625 44 346.625 48.6289062 350.184687 46.8125 356 51.5075 352.4 56.19125 356"></polygon>
            <polygon id="Shape-Copy-9-Copy-8" stroke="#C8C8C8" points="76.3767187 350.199219 81 346.625 75.375 346.625 73.5 341 71.625 346.625 66 346.625 70.6289062 350.184687 68.8125 356 73.5075 352.4 78.19125 356"></polygon>
            <polygon id="Shape-Copy-9-Copy-7" stroke="#C8C8C8" points="98.3767187 350.199219 103 346.625 97.375 346.625 95.5 341 93.625 346.625 88 346.625 92.6289062 350.184687 90.8125 356 95.5075 352.4 100.19125 356"></polygon>
            <g id="Group-2-Copy-3" transform="translate(0.000000, 341.000000)">
                <g id="Group-12-Copy-2-Copy-4">
                    <polygon id="Shape-Copy" stroke="#F5A623" points="10.3767187 9.19921872 15 5.625 9.375 5.625 7.5 0 5.625 5.625 0 5.625 4.62890625 9.1846875 2.8125 15 7.5075 11.4 12.19125 15"></polygon>
                    <polygon id="Combined-Shape" fill="#FFCD00" points="7.8 0.9 7.8 11.6248199 7.5075 11.4 2.8125 15 4.62890625 9.1846875 0 5.625 5.625 5.625 7.5 0"></polygon>
                </g>
            </g>
            <g id="Group-2-Copy-4" transform="translate(22.000000, 261.000000)">
                <g id="Group-12-Copy-2-Copy-4">
                    <polygon id="Shape-Copy" stroke="#F5A623" points="10.3767187 9.19921872 15 5.625 9.375 5.625 7.5 0 5.625 5.625 0 5.625 4.62890625 9.1846875 2.8125 15 7.5075 11.4 12.19125 15"></polygon>
                    <polygon id="Combined-Shape" fill="#FFCD00" points="7.8 0.9 7.8 11.6248199 7.5075 11.4 2.8125 15 4.62890625 9.1846875 0 5.625 5.625 5.625 7.5 0"></polygon>
                </g>
            </g>
            <g id="Group-2-Copy-5" transform="translate(44.000000, 192.000000)">
                <g id="Group-12-Copy-2-Copy-4">
                    <polygon id="Shape-Copy" stroke="#F5A623" points="10.3767187 9.19921872 15 5.625 9.375 5.625 7.5 0 5.625 5.625 0 5.625 4.62890625 9.1846875 2.8125 15 7.5075 11.4 12.19125 15"></polygon>
                    <polygon id="Combined-Shape" fill="#FFCD00" points="7.8 0.9 7.8 11.6248199 7.5075 11.4 2.8125 15 4.62890625 9.1846875 0 5.625 5.625 5.625 7.5 0"></polygon>
                </g>
            </g>
            <g id="Group-2-Copy-6" transform="translate(66.000000, 114.000000)">
                <g id="Group-12-Copy-2-Copy-4">
                    <polygon id="Shape-Copy" stroke="#F5A623" points="10.3767187 9.19921872 15 5.625 9.375 5.625 7.5 0 5.625 5.625 0 5.625 4.62890625 9.1846875 2.8125 15 7.5075 11.4 12.19125 15"></polygon>
                    <polygon id="Combined-Shape" fill="#FFCD00" points="7.8 0.9 7.8 11.6248199 7.5075 11.4 2.8125 15 4.62890625 9.1846875 0 5.625 5.625 5.625 7.5 0"></polygon>
                </g>
            </g>
            <g id="Group-2-Copy-7" transform="translate(88.000000, 34.000000)">
                <g id="Group-12-Copy-2-Copy-4">
                    <polygon id="Shape-Copy" stroke="#F5A623" points="10.3767187 9.19921872 15 5.625 9.375 5.625 7.5 0 5.625 5.625 0 5.625 4.62890625 9.1846875 2.8125 15 7.5075 11.4 12.19125 15"></polygon>
                    <polygon id="Combined-Shape" fill="#FFCD00" points="7.8 0.9 7.8 11.6248199 7.5075 11.4 2.8125 15 4.62890625 9.1846875 0 5.625 5.625 5.625 7.5 0"></polygon>
                </g>
            </g>
            <polygon id="Shape-Copy-9-Copy-2" stroke="#C8C8C8" points="32.3767187 310.199219 37 306.625 31.375 306.625 29.5 301 27.625 306.625 22 306.625 26.6289062 310.184687 24.8125 316 29.5075 312.4 34.19125 316"></polygon>
            <polygon id="Shape-Copy-9-Copy-12" stroke="#C8C8C8" points="54.3767187 310.199219 59 306.625 53.375 306.625 51.5 301 49.625 306.625 44 306.625 48.6289062 310.184687 46.8125 316 51.5075 312.4 56.19125 316"></polygon>
            <polygon id="Shape-Copy-9-Copy-11" stroke="#C8C8C8" points="76.3767187 310.199219 81 306.625 75.375 306.625 73.5 301 71.625 306.625 66 306.625 70.6289062 310.184687 68.8125 316 73.5075 312.4 78.19125 316"></polygon>
            <polygon id="Shape-Copy-9-Copy-10" stroke="#C8C8C8" points="98.3767187 310.199219 103 306.625 97.375 306.625 95.5 301 93.625 306.625 88 306.625 92.6289062 310.184687 90.8125 316 95.5075 312.4 100.19125 316"></polygon>
            <polygon id="Shape-Copy-9-Copy-15" stroke="#C8C8C8" points="54.3767187 270.199219 59 266.625 53.375 266.625 51.5 261 49.625 266.625 44 266.625 48.6289062 270.184687 46.8125 276 51.5075 272.4 56.19125 276"></polygon>
            <polygon id="Shape-Copy-9-Copy-14" stroke="#C8C8C8" points="76.3767187 270.199219 81 266.625 75.375 266.625 73.5 261 71.625 266.625 66 266.625 70.6289062 270.184687 68.8125 276 73.5075 272.4 78.19125 276"></polygon>
            <polygon id="Shape-Copy-9-Copy-13" stroke="#C8C8C8" points="98.3767187 270.199219 103 266.625 97.375 266.625 95.5 261 93.625 266.625 88 266.625 92.6289062 270.184687 90.8125 276 95.5075 272.4 100.19125 276"></polygon>
            <polygon id="Shape-Copy-9-Copy-18" stroke="#C8C8C8" points="54.3767187 236.199219 59 232.625 53.375 232.625 51.5 227 49.625 232.625 44 232.625 48.6289062 236.184687 46.8125 242 51.5075 238.4 56.19125 242"></polygon>
            <polygon id="Shape-Copy-9-Copy-17" stroke="#C8C8C8" points="76.3767187 236.199219 81 232.625 75.375 232.625 73.5 227 71.625 232.625 66 232.625 70.6289062 236.184687 68.8125 242 73.5075 238.4 78.19125 242"></polygon>
            <polygon id="Shape-Copy-9-Copy-16" stroke="#C8C8C8" points="98.3767187 236.199219 103 232.625 97.375 232.625 95.5 227 93.625 232.625 88 232.625 92.6289062 236.184687 90.8125 242 95.5075 238.4 100.19125 242"></polygon>
            <polygon id="Shape-Copy-9-Copy-20" stroke="#C8C8C8" points="76.3767187 163.199219 81 159.625 75.375 159.625 73.5 154 71.625 159.625 66 159.625 70.6289062 163.184687 68.8125 169 73.5075 165.4 78.19125 169"></polygon>
            <polygon id="Shape-Copy-9-Copy-19" stroke="#C8C8C8" points="98.3767187 163.199219 103 159.625 97.375 159.625 95.5 154 93.625 159.625 88 159.625 92.6289062 163.184687 90.8125 169 95.5075 165.4 100.19125 169"></polygon>
            <polygon id="Shape-Copy-9-Copy-21" stroke="#C8C8C8" points="98.3767187 123.199219 103 119.625 97.375 119.625 95.5 114 93.625 119.625 88 119.625 92.6289062 123.184687 90.8125 129 95.5075 125.4 100.19125 129"></polygon>
            <polygon id="Shape-Copy-9-Copy-22" stroke="#C8C8C8" points="98.3767187 83.1992187 103 79.625 97.375 79.625 95.5 74 93.625 79.625 88 79.625 92.6289062 83.1846875 90.8125 89 95.5075 85.4 100.19125 89"></polygon>
        </g>
    </g>
</svg>