<?xml version="1.0" encoding="UTF-8"?>
<svg width="112px" height="330px" viewBox="0 0 112 330" version="1.1" xmlns="http://www.w3.org/2000/svg" xmlns:xlink="http://www.w3.org/1999/xlink">
    <!-- Generator: Sketch 43 (38999) - http://www.bohemiancoding.com/sketch -->
    <title>Group 4</title>
    <desc>Created with Sketch.</desc>
    <defs></defs>
    <g id="Welcome" stroke="none" stroke-width="1" fill="none" fill-rule="evenodd">
        <g id="Tablet-Portrait" transform="translate(-391.000000, -327.000000)">
            <g id="Group-4" transform="translate(392.000000, 328.000000)">
                <g id="hospital-copy-3" transform="translate(0.000000, 165.000000)">
                    <path d="M24.9135231,0 C38.6720641,0 49.8270463,11.1549822 49.8270463,24.9135231 C49.8270463,38.6704626 38.6720641,49.8270463 24.9135231,49.8270463 C11.1549822,49.8270463 0,38.6718861 0,24.9135231 C0,11.1551601 11.1533808,0 24.9135231,0 Z" id="Shape" fill="#EBEBEB"></path>
                    <path d="M14.0122776,20.2467972 L20.2640569,20.2467972 L20.2640569,14.0122776 C20.2640569,13.152847 20.9601423,12.4551601 21.819573,12.4551601 L28.041637,12.4551601 C28.8996441,12.4551601 29.5955516,13.152669 29.5955516,14.0122776 L29.5955516,20.2453737 L35.8145907,20.2453737 C36.6756228,20.2453737 37.3717082,20.9414591 37.3717082,21.8024911 L37.3717082,28.0323843 C37.3717082,28.8950178 36.6756228,29.5925267 35.8145907,29.5925267 L29.5955516,29.5925267 L29.5955516,35.808363 C29.5955516,36.669395 28.8994662,37.3654804 28.041637,37.3654804 L21.819573,37.3654804 C20.9601423,37.3654804 20.2640569,36.669395 20.2640569,35.808363 L20.2640569,29.5925267 L14.0122776,29.5925267 C13.1512456,29.5925267 12.4535587,28.8950178 12.4535587,28.0323843 L12.4535587,21.8024911 C12.4535587,20.9428826 13.1512456,20.2467972 14.0122776,20.2467972 Z" id="Shape" stroke="#507C5C" stroke-width="2"></path>
                </g>
                <g id="Group-9-Copy-3" transform="translate(0.000000, 110.000000)">
                    <g id="ambulance">
                        <path d="M25,0 C38.8062979,0 50,11.1937021 50,25 C50,38.804691 38.8062979,50 25,50 C11.1937021,50 0,38.8061194 0,25 C0,11.1938806 11.1920951,0 25,0 Z" id="Shape" fill="#EBEBEB"></path>
                        <g id="Group" transform="translate(13.984375, 19.257812)" fill="#CFF09E">
                            <circle id="Oval" cx="17.8931836" cy="13.3662891" r="3.31658203"></circle>
                            <ellipse id="Oval" cx="3.34119141" cy="13.3662891" rx="3.31658203" ry="3.31658203"></ellipse>
                            <path d="M17.1619922,5.48478516 L17.1619922,0.0331054688 L17.7515039,0.0331054688 L22.0325977,4.09447266 C22.0338281,4.10296875 22.0344727,4.11152344 22.0344727,4.12019531 L22.0344727,5.48478516 L17.1619922,5.48478516 Z" id="Shape"></path>
                        </g>
                        <g id="Group" transform="translate(17.031250, 18.378906)" fill="#507C5C">
                            <path d="M18.9874805,7.24839844 L14.115,7.24839844 C13.6263867,7.24839844 13.230293,6.85230469 13.230293,6.36369141 L13.230293,0.912011719 C13.230293,0.423398438 13.6263867,0.0273046875 14.115,0.0273046875 L14.7045117,0.0273046875 C14.9310937,0.0273046875 15.1490039,0.114199219 15.3133594,0.270175781 L19.5944531,4.33154297 C19.7392969,4.46894531 19.8333984,4.65128906 19.8614648,4.84892578 C19.8685547,4.89849609 19.8720703,4.94900391 19.8720703,4.99916016 L19.8720703,6.36375 C19.8721875,6.85230469 19.4760937,7.24839844 18.9874805,7.24839844 Z M14.9998242,5.47892578 L18.102832,5.47892578 L18.102832,5.35523437 L14.9998242,2.41154297 L14.9998242,5.47892578 L14.9998242,5.47892578 Z" id="Shape"></path>
                            <path d="M2.79304688,6.91494141 C2.30443359,6.91494141 1.90833984,6.51884766 1.90833984,6.03023437 L1.90833984,2.22591797 C1.90833984,1.73730469 2.30443359,1.34121094 2.79304688,1.34121094 C3.28166016,1.34121094 3.67775391,1.73730469 3.67775391,2.22591797 L3.67775391,6.03023437 C3.67775391,6.51884766 3.28166016,6.91494141 2.79304688,6.91494141 Z" id="Shape"></path>
                            <path d="M4.69523438,5.0128125 L0.890917969,5.0128125 C0.402304687,5.0128125 0.0062109375,4.61671875 0.0062109375,4.12810547 C0.0062109375,3.63949219 0.402304687,3.24339844 0.890917969,3.24339844 L4.69523438,3.24339844 C5.18384766,3.24339844 5.57994141,3.63949219 5.57994141,4.12810547 C5.57994141,4.61671875 5.18384766,5.0128125 4.69523438,5.0128125 Z" id="Shape"></path>
                        </g>
                        <path d="M27.9612109,14.7799023 L23.8498047,14.7799023 L23.8498047,12.9510742 C23.8498047,11.8157617 24.7701953,10.8954297 25.9054492,10.8954297 L25.9054492,10.8954297 C27.0407617,10.8954297 27.9610938,11.8158203 27.9610938,12.9510742 L27.9610938,14.7799023 L27.9612109,14.7799023 Z" id="Shape" fill="#CFF09E"></path>
                        <path d="M39.3449219,21.1370312 C39.3105273,21.0832422 39.2704492,21.0333203 39.2252148,20.9881445 L33.8088086,15.5689258 C33.6429297,15.4029297 33.4177539,15.3095898 33.1830273,15.3095898 L31.1463086,15.3095898 C30.6576953,15.3095898 30.2616016,15.7056836 30.2616016,16.1942969 C30.2616016,16.6829102 30.6576953,17.0790039 31.1463086,17.0790039 L32.8165234,17.0790039 L37.9004687,22.1655859 C38.1166797,22.5329102 38.2305859,22.9502734 38.2305859,23.3779492 L38.2305859,31.7391016 L35.9841602,31.7391016 C35.5766406,29.8460547 33.8905469,28.4226367 31.8774414,28.4226367 C29.8643359,28.4226367 28.1782422,29.8460547 27.7707227,31.7391016 L21.4326367,31.7391016 C21.0251172,29.8460547 19.3389062,28.4226367 17.325918,28.4226367 C15.3129297,28.4226367 13.6266016,29.8460547 13.2191992,31.7391016 L11.7694727,31.7391016 L11.7694727,18.6896289 C11.7694727,15.8828125 14.7623242,15.6647266 15.6796094,15.6647266 L23.8498047,15.6647266 L27.0765039,15.6647266 L27.0765039,24.7426562 C27.0765039,25.2312695 27.4725977,25.6273633 27.9612109,25.6273633 C28.4498242,25.6273633 28.845918,25.2312695 28.845918,24.7426562 L28.845918,14.7799023 L28.845918,12.9510742 C28.845918,11.3297266 27.5268555,10.0106641 25.9055078,10.0106641 C24.2841602,10.0106641 22.9650977,11.3297266 22.9650977,12.9510742 L22.9650977,13.8951953 L15.6796094,13.8951953 C12.2294336,13.8951953 10,15.7771094 10,18.6896289 L10,32.6239258 C10,33.1125391 10.3960937,33.5086328 10.884707,33.5086328 L13.2191406,33.5086328 C13.6266602,35.4016797 15.3127539,36.8252148 17.3258594,36.8252148 C19.3389648,36.8252148 21.0250586,35.4016797 21.4325781,33.5086328 L27.7706055,33.5086328 C28.178125,35.4016797 29.8642187,36.8252148 31.8773242,36.8252148 C33.8904297,36.8252148 35.5765234,35.4016797 35.984043,33.5086328 L39.1151758,33.5086328 C39.6037891,33.5086328 39.9998828,33.1125391 39.9998828,32.6239258 L39.9998828,23.3779492 C40,22.5823633 39.773418,21.8074023 39.3449219,21.1370312 Z M24.7345117,12.9510742 C24.7345117,12.3053711 25.2598633,11.7801367 25.9054492,11.7801367 C26.5510352,11.7801367 27.0763867,12.3054883 27.0763867,12.9510742 L27.0763867,13.8951953 L24.7343945,13.8951953 L24.7343945,12.9510742 L24.7345117,12.9510742 Z M17.3258008,35.0556836 C15.9848828,35.0556836 14.894043,33.9647266 14.894043,32.6238086 C14.894043,31.2828906 15.985,30.1920508 17.3258008,30.1920508 C18.6667187,30.1920508 19.7576758,31.2830078 19.7576758,32.6238086 C19.7576758,33.9647266 18.6667187,35.0556836 17.3258008,35.0556836 Z M31.8773828,35.0556836 C30.5366406,35.0556836 29.4458594,33.9650781 29.4455078,32.6244531 L29.4455078,32.6239258 L29.4455078,32.6233984 C29.4458594,31.2827734 30.5366406,30.192168 31.8773828,30.192168 C33.2183008,30.192168 34.3091406,31.283125 34.3091406,32.6239258 C34.3091406,33.9647266 33.2183008,35.0556836 31.8773828,35.0556836 Z" id="Shape" fill="#507C5C"></path>
                    </g>
                </g>
                <g id="Group-8-Copy-3" transform="translate(0.000000, 55.000000)">
                    <g id="pill">
                        <path d="M24.9135231,0 C38.6720641,0 49.8270463,11.1549822 49.8270463,24.9135231 C49.8270463,38.6704626 38.6720641,49.8270463 24.9135231,49.8270463 C11.1549822,49.8270463 0,38.6718861 0,24.9135231 C0,11.1551601 11.1533808,0 24.9135231,0 Z" id="Shape" fill="#EBEBEB"></path>
                        <g id="Capa_1" transform="translate(10.000000, 10.000000)">
                            <g id="Group">
                                <path d="M2.41396552,15.8803448 C-0.804827586,19.0991379 -0.804827586,24.3656897 2.41396552,27.5839655 C5.63275862,30.8027586 10.8993103,30.8027586 14.1175862,27.5839655 L20.8991379,20.8024138 L9.19551724,9.0987931 L2.41396552,15.8803448 Z" id="Shape" stroke="#507C5C" fill="#CFF09E"></path>
                                <path d="M27.5839655,2.41396552 L27.5839655,2.41396552 C24.3651724,-0.804827586 19.0986207,-0.804827586 15.8803448,2.41396552 L9.19551724,9.0987931 L20.8991379,20.8024138 L27.5839655,14.1175862 C30.8027586,10.8993103 30.8027586,5.63224138 27.5839655,2.41396552 Z" id="Shape" stroke="#507C5C"></path>
                                <path d="M22.0117241,16.5496552 C21.8793103,16.5496552 21.7468966,16.4989655 21.6460345,16.3981034 C21.4437931,16.1958621 21.4437931,15.8689655 21.6460345,15.6667241 L25.3898276,11.922931 C26.3601724,10.9525862 26.895,9.6537931 26.895,8.26551724 C26.895,6.87724138 26.3606897,5.57844828 25.3898276,4.60810345 C25.1875862,4.40586207 25.1875862,4.07896552 25.3898276,3.87672414 C25.592069,3.67448276 25.9189655,3.67448276 26.1212069,3.87672414 C27.287069,5.04258621 27.9294828,6.60155172 27.9294828,8.26551724 C27.9294828,9.92948276 27.2875862,11.4884483 26.1212069,12.6543103 L22.3774138,16.3981034 C22.2760345,16.4994828 22.1441379,16.5496552 22.0117241,16.5496552 Z" id="Shape" fill="#507C5C"></path>
                                <path d="M2.91517241,24.1748276 C2.70206897,24.1748276 2.50293103,24.0424138 2.42793103,23.8303448 C0.968793103,19.7156897 4.32258621,16.617931 7.01741379,14.1284483 C7.52172414,13.662931 7.99758621,13.2232759 8.42793103,12.792931 C8.63017241,12.5906897 8.95706897,12.5906897 9.15931034,12.792931 C9.36155172,12.9951724 9.36155172,13.322069 9.15931034,13.5243103 C8.715,13.9686207 8.23137931,14.4155172 7.71982759,14.8882759 C5.11965517,17.2903448 2.17189655,20.0131034 3.40293103,23.4843103 C3.49862069,23.7537931 3.35793103,24.0491379 3.08844828,24.1448276 C3.03051724,24.165 2.97258621,24.1748276 2.91517241,24.1748276 Z" id="Shape" fill="#507C5C"></path>
                                <path d="M12.9310345,9.53844828 C12.7986207,9.53844828 12.6662069,9.48775862 12.5653448,9.38689655 C12.3631034,9.18465517 12.3631034,8.85775862 12.5653448,8.65551724 L17.3436207,3.87724138 L17.7387931,4.21396552 L18.075,4.60862069 L13.2967241,9.38689655 C13.1958621,9.48775862 13.0634483,9.53844828 12.9310345,9.53844828 Z" id="Shape" fill="#507C5C"></path>
                            </g>
                        </g>
                    </g>
                </g>
                <g id="Group-7-Copy-3">
                    <g id="cells">
                        <path d="M24.9135231,0 C38.6720641,0 49.8270463,11.1549822 49.8270463,24.9135231 C49.8270463,38.6704626 38.6720641,49.8270463 24.9135231,49.8270463 C11.1549822,49.8270463 0,38.6718861 0,24.9135231 C0,11.1551601 11.1533808,0 24.9135231,0 Z" id="Shape" fill="#EBEBEB"></path>
                        <g id="Group-5" transform="translate(12.000000, 12.000000)">
                            <circle id="Oval-2" fill="#CFF09E" cx="12.9166667" cy="12.9166667" r="4.58333333"></circle>
                            <path d="M22.0433673,19.0714286 C21.2882653,19.0714286 20.5994898,19.3469388 20.0841837,19.8265306 L16.3035714,15.8418367 C17.0943878,14.9489796 17.5688776,13.7806122 17.5688776,12.4744898 C17.5688776,9.68367347 15.2882653,7.40306122 12.497449,7.40306122 C12.2423469,7.40306122 11.9617347,7.42346939 11.7066327,7.46428571 C11.7066327,7.46428571 12.6352041,3.97959184 12.6352041,3.95918367 C13.6658163,3.87755102 14.4566327,3.03061224 14.4566327,1.97959184 C14.4566327,0.887755102 13.5637755,0 12.4770408,0 C11.3903061,0 10.5331633,0.913265306 10.5331633,2 C10.5331633,2.79081633 11.0076531,3.46428571 11.6607143,3.78061224 L11.6607143,3.80102041 L10.5739796,7.80102041 C9.9005102,8.08163265 9.29846939,8.5 8.80867347,9.01020408 L5.10459184,5.03061224 C5.61989796,4.49489796 5.93622449,3.78061224 5.93622449,2.96938776 C5.93622449,1.34693878 4.60969388,0.0153061224 2.98214286,0.0153061224 C1.35459184,0.0153061224 0.0280612245,1.34183673 0.0280612245,2.96938776 C0.0280612245,4.59183673 1.35459184,5.92346939 2.98214286,5.92346939 C3.43112245,5.92346939 3.88520408,5.80612245 4.25765306,5.63265306 L8.19132653,9.84693878 C7.71683673,10.6173469 7.44132653,11.5306122 7.44132653,12.5204082 C7.44132653,13.6632653 7.83418367,14.7295918 8.46173469,15.5765306 C8.46173469,15.5765306 5.75765306,18.3010204 5.7372449,18.3010204 C5.14540816,17.9030612 4.45153061,17.6683673 3.67602041,17.6683673 C1.65561224,17.6887755 0.0331632653,19.3112245 0.0331632653,21.3316327 C0.0331632653,23.3520408 1.65561224,24.9744898 3.67602041,24.9744898 C5.69642857,24.9744898 7.31887755,23.3520408 7.31887755,21.3316327 C7.31887755,20.4387755 7.00255102,19.627551 6.46683673,18.994898 L9.14030612,16.3214286 C10.0331633,17.1122449 11.2015306,17.5867347 12.4872449,17.5867347 C13.6352041,17.5867347 14.6862245,17.2091837 15.5331633,16.5612245 C15.5331633,16.5612245 19.4005102,20.622449 19.4209184,20.6377551 C19.1811224,21.0561224 19.0637755,21.5306122 19.0637755,22.0459184 C19.0637755,23.6683673 20.3903061,25 22.0178571,25 C23.6454082,25 24.9719388,23.6734694 24.9719388,22.0459184 C24.9719388,20.4183673 23.6658163,19.0714286 22.0433673,19.0714286 Z" id="Shape" stroke="#507C5C" stroke-width="2"></path>
                        </g>
                    </g>
                </g>
                <g id="Group-11-Copy-3" transform="translate(0.000000, 221.000000)">
                    <g id="blood-drop">
                        <path d="M24.9135231,0 C38.6720641,0 49.8270463,11.1549822 49.8270463,24.9135231 C49.8270463,38.6704626 38.6720641,49.8270463 24.9135231,49.8270463 C11.1549822,49.8270463 0,38.6718861 0,24.9135231 C0,11.1551601 11.1533808,0 24.9135231,0 Z" id="Shape" fill="#EBEBEB"></path>
                        <g id="Group" transform="translate(16.000000, 9.000000)">
                            <path d="M17.891129,20.6471613 C17.891129,25.3842581 14.0509355,29.2244516 9.31383871,29.2244516 C4.57674194,29.2244516 0.736548387,25.3842581 0.736548387,20.6471613 C0.736548387,15.9100645 9.31383871,0.822 9.31383871,0.822 C9.31383871,0.822 17.891129,15.9100645 17.891129,20.6471613 Z M13.11,17.5018065 L11.5485484,17.5018065 C11.2813548,17.5018065 11.0646774,17.285129 11.0646774,17.0179355 L11.0646774,15.4564839 C11.0646774,15.1892903 10.848,14.9726129 10.5808065,14.9726129 L8.04687097,14.9726129 C7.77967742,14.9726129 7.563,15.1892903 7.563,15.4564839 L7.563,17.0179355 C7.563,17.285129 7.34632258,17.5018065 7.07912903,17.5018065 L5.51767742,17.5018065 C5.25048387,17.5018065 5.03380645,17.7184839 5.03380645,17.9856774 L5.03380645,20.5196129 C5.03380645,20.7868065 5.25048387,21.0034839 5.51767742,21.0034839 L7.07912903,21.0034839 C7.34632258,21.0034839 7.563,21.2201613 7.563,21.4873548 L7.563,23.0488065 C7.563,23.316 7.77967742,23.5326774 8.04687097,23.5326774 L10.5808065,23.5326774 C10.848,23.5326774 11.0646774,23.316 11.0646774,23.0488065 L11.0646774,21.4873548 C11.0646774,21.2201613 11.2813548,21.0034839 11.5485484,21.0034839 L13.11,21.0034839 C13.3771935,21.0034839 13.593871,20.7868065 13.593871,20.5196129 L13.593871,17.9856774 C13.593871,17.7183871 13.3771935,17.5018065 13.11,17.5018065 Z" id="Combined-Shape" stroke="#507C5C" fill="#CFF09E"></path>
                            <path d="M9.94480645,0.463258065 C9.66677419,-0.0253548387 8.96090323,-0.0255483871 8.68277419,0.463258065 C8.32877419,1.08609677 0.0106451613,15.7740968 0.0106451613,20.6470645 C0.0106451613,25.776871 4.18403226,29.9502581 9.31383871,29.9502581 C14.4436452,29.9502581 18.6170323,25.776871 18.6170323,20.6470645 C18.6169355,15.7740968 10.2988065,1.08619355 9.94480645,0.463258065 Z M9.31374194,28.4987419 C4.98445161,28.4987419 1.46216129,24.9764516 1.46216129,20.6471613 C1.46216129,16.8657097 7.49148387,5.62054839 9.31374194,2.31309677 C11.1421935,5.63177419 17.1653226,16.8675484 17.1653226,20.6471613 C17.1653226,24.9764516 13.643129,28.4987419 9.31374194,28.4987419 Z" id="Shape" fill="#507C5C"></path>
                        </g>
                    </g>
                </g>
                <g id="Group-10-Copy-3" transform="translate(0.000000, 278.000000)">
                    <g id="syringe-(1)">
                        <path d="M24.9135231,0 C38.6720641,0 49.8270463,11.1549822 49.8270463,24.9135231 C49.8270463,38.6704626 38.6720641,49.8270463 24.9135231,49.8270463 C11.1549822,49.8270463 0,38.6718861 0,24.9135231 C0,11.1551601 11.1533808,0 24.9135231,0 Z" id="Shape" stroke="#00B8DE"></path>
                        <polygon id="Shape" fill="#CFF09E" points="20.5804545 21.4920455 16.6221281 25.4503719 16.6221281 33.3660331 24.5378512 33.3660331 28.4961157 29.4077686"></polygon>
                        <path d="M39.7105992,18.1932851 L37.0723347,15.5550207 L37.0723347,15.5550207 L34.4331405,12.9167562 L34.4331405,12.9167562 L31.7939463,10.277624 C31.4301033,9.91378099 30.838657,9.91378099 30.474814,10.277624 C30.1109711,10.6423967 30.1109711,11.2329132 30.474814,11.5967562 L32.4535124,13.5754545 L29.8152479,16.2146488 L27.8365496,14.2359504 C27.4717769,13.8711777 26.8812603,13.8711777 26.5174174,14.2359504 L15.9289669,24.789876 C15.7554752,24.9633678 15.6229545,25.2041116 15.6229545,25.4494421 L15.6229545,32.9788843 L10.2653512,38.3692149 C9.90057851,38.7339876 9.91737603,39.3245041 10.2821488,39.6883471 C10.6459917,40.0521901 11.244876,40.0857851 11.6096488,39.7219421 L17.0083471,34.3652066 L24.5377893,34.3652066 C24.7831198,34.3652066 25.0238017,34.2327479 25.1973554,34.0591942 L35.7522727,23.4875413 C35.9257645,23.3140496 36.0256198,23.064938 36.0256198,22.8196074 C36.0256198,22.5742769 35.9258264,22.329814 35.7522727,22.1553926 L33.7735744,20.1748347 L36.4118388,17.5347107 L38.3905372,19.5134091 C38.7553099,19.8781818 39.3458264,19.8772521 39.7096694,19.5134091 C40.0744421,19.1485744 40.0744421,18.5580579 39.7105992,18.1932851 Z M30.9478099,25.6369421 L28.9691116,23.6582438 L27.6499793,24.977376 L29.6286777,26.9560744 L26.9904132,29.5943388 L25.0117149,27.6156405 L23.6925826,28.9347727 L25.671281,30.9470661 L24.1515702,32.4994421 L18.0093182,32.4994421 C17.9645661,32.4994421 17.875,32.2736983 17.7947314,32.1934298 C17.7145248,32.1122934 17.488719,32.023657 17.488719,31.978843 L17.488719,25.8365909 L27.1433264,16.2145868 L29.1388223,18.1932851 L31.7854545,20.8315496 L33.7688017,22.8102479 L30.9478099,25.6369421 Z M32.4535124,18.8528512 L31.1343802,17.533719 L33.7726446,14.8954545 L35.0917769,16.2145868 L32.4535124,18.8528512 Z" id="Shape" fill="#507C5C"></path>
                    </g>
                </g>
                <g id="hospital-copy-2" transform="translate(60.000000, 165.000000)" stroke="#00B8DE">
                    <path d="M24.9135231,0 C38.6720641,0 49.8270463,11.1549822 49.8270463,24.9135231 C49.8270463,38.6704626 38.6720641,49.8270463 24.9135231,49.8270463 C11.1549822,49.8270463 0,38.6718861 0,24.9135231 C0,11.1551601 11.1533808,0 24.9135231,0 Z" id="Shape"></path>
                    <path d="M14.0122776,20.2467972 L20.2640569,20.2467972 L20.2640569,14.0122776 C20.2640569,13.152847 20.9601423,12.4551601 21.819573,12.4551601 L28.041637,12.4551601 C28.8996441,12.4551601 29.5955516,13.152669 29.5955516,14.0122776 L29.5955516,20.2453737 L35.8145907,20.2453737 C36.6756228,20.2453737 37.3717082,20.9414591 37.3717082,21.8024911 L37.3717082,28.0323843 C37.3717082,28.8950178 36.6756228,29.5925267 35.8145907,29.5925267 L29.5955516,29.5925267 L29.5955516,35.808363 C29.5955516,36.669395 28.8994662,37.3654804 28.041637,37.3654804 L21.819573,37.3654804 C20.9601423,37.3654804 20.2640569,36.669395 20.2640569,35.808363 L20.2640569,29.5925267 L14.0122776,29.5925267 C13.1512456,29.5925267 12.4535587,28.8950178 12.4535587,28.0323843 L12.4535587,21.8024911 C12.4535587,20.9428826 13.1512456,20.2467972 14.0122776,20.2467972 Z" id="Shape" stroke-width="2"></path>
                </g>
                <g id="Group-9-Copy-2" transform="translate(60.000000, 110.000000)">
                    <g id="ambulance">
                        <path d="M25,0 C38.8062979,0 50,11.1937021 50,25 C50,38.804691 38.8062979,50 25,50 C11.1937021,50 0,38.8061194 0,25 C0,11.1938806 11.1920951,0 25,0 Z" id="Shape" stroke="#00B8DE"></path>
                        <g id="Group" transform="translate(13.984375, 19.257812)">
                            <circle id="Oval" cx="17.8931836" cy="13.3662891" r="3.31658203"></circle>
                            <ellipse id="Oval" cx="3.34119141" cy="13.3662891" rx="3.31658203" ry="3.31658203"></ellipse>
                            <path d="M17.1619922,5.48478516 L17.1619922,0.0331054688 L17.7515039,0.0331054688 L22.0325977,4.09447266 C22.0338281,4.10296875 22.0344727,4.11152344 22.0344727,4.12019531 L22.0344727,5.48478516 L17.1619922,5.48478516 Z" id="Shape"></path>
                        </g>
                        <g id="Group" transform="translate(17.031250, 18.378906)" fill="#00B8DE">
                            <path d="M18.9874805,7.24839844 L14.115,7.24839844 C13.6263867,7.24839844 13.230293,6.85230469 13.230293,6.36369141 L13.230293,0.912011719 C13.230293,0.423398438 13.6263867,0.0273046875 14.115,0.0273046875 L14.7045117,0.0273046875 C14.9310937,0.0273046875 15.1490039,0.114199219 15.3133594,0.270175781 L19.5944531,4.33154297 C19.7392969,4.46894531 19.8333984,4.65128906 19.8614648,4.84892578 C19.8685547,4.89849609 19.8720703,4.94900391 19.8720703,4.99916016 L19.8720703,6.36375 C19.8721875,6.85230469 19.4760937,7.24839844 18.9874805,7.24839844 Z M14.9998242,5.47892578 L18.102832,5.47892578 L18.102832,5.35523438 L14.9998242,2.41154297 L14.9998242,5.47892578 L14.9998242,5.47892578 Z" id="Shape"></path>
                            <path d="M2.79304688,6.91494141 C2.30443359,6.91494141 1.90833984,6.51884766 1.90833984,6.03023438 L1.90833984,2.22591797 C1.90833984,1.73730469 2.30443359,1.34121094 2.79304688,1.34121094 C3.28166016,1.34121094 3.67775391,1.73730469 3.67775391,2.22591797 L3.67775391,6.03023438 C3.67775391,6.51884766 3.28166016,6.91494141 2.79304688,6.91494141 Z" id="Shape"></path>
                            <path d="M4.69523437,5.0128125 L0.890917969,5.0128125 C0.402304687,5.0128125 0.0062109375,4.61671875 0.0062109375,4.12810547 C0.0062109375,3.63949219 0.402304687,3.24339844 0.890917969,3.24339844 L4.69523437,3.24339844 C5.18384766,3.24339844 5.57994141,3.63949219 5.57994141,4.12810547 C5.57994141,4.61671875 5.18384766,5.0128125 4.69523437,5.0128125 Z" id="Shape"></path>
                        </g>
                        <path d="M27.9612109,14.7799023 L23.8498047,14.7799023 L23.8498047,12.9510742 C23.8498047,11.8157617 24.7701953,10.8954297 25.9054492,10.8954297 L25.9054492,10.8954297 C27.0407617,10.8954297 27.9610938,11.8158203 27.9610938,12.9510742 L27.9610938,14.7799023 L27.9612109,14.7799023 Z" id="Shape"></path>
                        <path d="M39.3449219,21.1370312 C39.3105273,21.0832422 39.2704492,21.0333203 39.2252148,20.9881445 L33.8088086,15.5689258 C33.6429297,15.4029297 33.4177539,15.3095898 33.1830273,15.3095898 L31.1463086,15.3095898 C30.6576953,15.3095898 30.2616016,15.7056836 30.2616016,16.1942969 C30.2616016,16.6829102 30.6576953,17.0790039 31.1463086,17.0790039 L32.8165234,17.0790039 L37.9004687,22.1655859 C38.1166797,22.5329102 38.2305859,22.9502734 38.2305859,23.3779492 L38.2305859,31.7391016 L35.9841602,31.7391016 C35.5766406,29.8460547 33.8905469,28.4226367 31.8774414,28.4226367 C29.8643359,28.4226367 28.1782422,29.8460547 27.7707227,31.7391016 L21.4326367,31.7391016 C21.0251172,29.8460547 19.3389062,28.4226367 17.325918,28.4226367 C15.3129297,28.4226367 13.6266016,29.8460547 13.2191992,31.7391016 L11.7694727,31.7391016 L11.7694727,18.6896289 C11.7694727,15.8828125 14.7623242,15.6647266 15.6796094,15.6647266 L23.8498047,15.6647266 L27.0765039,15.6647266 L27.0765039,24.7426562 C27.0765039,25.2312695 27.4725977,25.6273633 27.9612109,25.6273633 C28.4498242,25.6273633 28.845918,25.2312695 28.845918,24.7426562 L28.845918,14.7799023 L28.845918,12.9510742 C28.845918,11.3297266 27.5268555,10.0106641 25.9055078,10.0106641 C24.2841602,10.0106641 22.9650977,11.3297266 22.9650977,12.9510742 L22.9650977,13.8951953 L15.6796094,13.8951953 C12.2294336,13.8951953 10,15.7771094 10,18.6896289 L10,32.6239258 C10,33.1125391 10.3960937,33.5086328 10.884707,33.5086328 L13.2191406,33.5086328 C13.6266602,35.4016797 15.3127539,36.8252148 17.3258594,36.8252148 C19.3389648,36.8252148 21.0250586,35.4016797 21.4325781,33.5086328 L27.7706055,33.5086328 C28.178125,35.4016797 29.8642187,36.8252148 31.8773242,36.8252148 C33.8904297,36.8252148 35.5765234,35.4016797 35.984043,33.5086328 L39.1151758,33.5086328 C39.6037891,33.5086328 39.9998828,33.1125391 39.9998828,32.6239258 L39.9998828,23.3779492 C40,22.5823633 39.773418,21.8074023 39.3449219,21.1370312 Z M24.7345117,12.9510742 C24.7345117,12.3053711 25.2598633,11.7801367 25.9054492,11.7801367 C26.5510352,11.7801367 27.0763867,12.3054883 27.0763867,12.9510742 L27.0763867,13.8951953 L24.7343945,13.8951953 L24.7343945,12.9510742 L24.7345117,12.9510742 Z M17.3258008,35.0556836 C15.9848828,35.0556836 14.894043,33.9647266 14.894043,32.6238086 C14.894043,31.2828906 15.985,30.1920508 17.3258008,30.1920508 C18.6667187,30.1920508 19.7576758,31.2830078 19.7576758,32.6238086 C19.7576758,33.9647266 18.6667187,35.0556836 17.3258008,35.0556836 Z M31.8773828,35.0556836 C30.5366406,35.0556836 29.4458594,33.9650781 29.4455078,32.6244531 L29.4455078,32.6239258 L29.4455078,32.6233984 C29.4458594,31.2827734 30.5366406,30.192168 31.8773828,30.192168 C33.2183008,30.192168 34.3091406,31.283125 34.3091406,32.6239258 C34.3091406,33.9647266 33.2183008,35.0556836 31.8773828,35.0556836 Z" id="Shape" fill="#00B8DE"></path>
                    </g>
                </g>
                <g id="Group-8-Copy-2" transform="translate(60.000000, 55.000000)">
                    <g id="pill">
                        <path d="M24.9135231,0 C38.6720641,0 49.8270463,11.1549822 49.8270463,24.9135231 C49.8270463,38.6704626 38.6720641,49.8270463 24.9135231,49.8270463 C11.1549822,49.8270463 0,38.6718861 0,24.9135231 C0,11.1551601 11.1533808,0 24.9135231,0 Z" id="Shape" stroke="#00B8DE"></path>
                        <g id="Capa_1" transform="translate(10.000000, 10.000000)">
                            <g id="Group">
                                <path d="M2.41396552,15.8803448 C-0.804827586,19.0991379 -0.804827586,24.3656897 2.41396552,27.5839655 C5.63275862,30.8027586 10.8993103,30.8027586 14.1175862,27.5839655 L20.8991379,20.8024138 L9.19551724,9.0987931 L2.41396552,15.8803448 Z" id="Shape" stroke="#00B8DE" fill="#00B8DE"></path>
                                <path d="M27.5839655,2.41396552 L27.5839655,2.41396552 C24.3651724,-0.804827586 19.0986207,-0.804827586 15.8803448,2.41396552 L9.19551724,9.0987931 L20.8991379,20.8024138 L27.5839655,14.1175862 C30.8027586,10.8993103 30.8027586,5.63224138 27.5839655,2.41396552 Z" id="Shape" stroke="#00B8DE"></path>
                                <path d="M22.0117241,16.5496552 C21.8793103,16.5496552 21.7468966,16.4989655 21.6460345,16.3981034 C21.4437931,16.1958621 21.4437931,15.8689655 21.6460345,15.6667241 L25.3898276,11.922931 C26.3601724,10.9525862 26.895,9.6537931 26.895,8.26551724 C26.895,6.87724138 26.3606897,5.57844828 25.3898276,4.60810345 C25.1875862,4.40586207 25.1875862,4.07896552 25.3898276,3.87672414 C25.592069,3.67448276 25.9189655,3.67448276 26.1212069,3.87672414 C27.287069,5.04258621 27.9294828,6.60155172 27.9294828,8.26551724 C27.9294828,9.92948276 27.2875862,11.4884483 26.1212069,12.6543103 L22.3774138,16.3981034 C22.2760345,16.4994828 22.1441379,16.5496552 22.0117241,16.5496552 Z" id="Shape" fill="#00B8DE"></path>
                                <path d="M2.91517241,24.1748276 C2.70206897,24.1748276 2.50293103,24.0424138 2.42793103,23.8303448 C0.968793103,19.7156897 4.32258621,16.617931 7.01741379,14.1284483 C7.52172414,13.662931 7.99758621,13.2232759 8.42793103,12.792931 C8.63017241,12.5906897 8.95706897,12.5906897 9.15931034,12.792931 C9.36155172,12.9951724 9.36155172,13.322069 9.15931034,13.5243103 C8.715,13.9686207 8.23137931,14.4155172 7.71982759,14.8882759 C5.11965517,17.2903448 2.17189655,20.0131034 3.40293103,23.4843103 C3.49862069,23.7537931 3.35793103,24.0491379 3.08844828,24.1448276 C3.03051724,24.165 2.97258621,24.1748276 2.91517241,24.1748276 Z" id="Shape" fill="#FFFFFF"></path>
                                <path d="M12.9310345,9.53844828 C12.7986207,9.53844828 12.6662069,9.48775862 12.5653448,9.38689655 C12.3631034,9.18465517 12.3631034,8.85775862 12.5653448,8.65551724 L17.3436207,3.87724138 L17.7387931,4.21396552 L18.075,4.60862069 L13.2967241,9.38689655 C13.1958621,9.48775862 13.0634483,9.53844828 12.9310345,9.53844828 Z" id="Shape" fill="#00B8DE"></path>
                            </g>
                        </g>
                    </g>
                </g>
                <g id="Group-7-Copy-2" transform="translate(60.000000, 0.000000)">
                    <g id="cells">
                        <path d="M24.9135231,0 C38.6720641,0 49.8270463,11.1549822 49.8270463,24.9135231 C49.8270463,38.6704626 38.6720641,49.8270463 24.9135231,49.8270463 C11.1549822,49.8270463 0,38.6718861 0,24.9135231 C0,11.1551601 11.1533808,0 24.9135231,0 Z" id="Shape" stroke="#00B8DE"></path>
                        <g id="Group-5" transform="translate(12.000000, 12.000000)">
                            <circle id="Oval-2" cx="12.9166667" cy="12.9166667" r="4.58333333"></circle>
                            <path d="M22.0433673,19.0714286 C21.2882653,19.0714286 20.5994898,19.3469388 20.0841837,19.8265306 L16.3035714,15.8418367 C17.0943878,14.9489796 17.5688776,13.7806122 17.5688776,12.4744898 C17.5688776,9.68367347 15.2882653,7.40306122 12.497449,7.40306122 C12.2423469,7.40306122 11.9617347,7.42346939 11.7066327,7.46428571 C11.7066327,7.46428571 12.6352041,3.97959184 12.6352041,3.95918367 C13.6658163,3.87755102 14.4566327,3.03061224 14.4566327,1.97959184 C14.4566327,0.887755102 13.5637755,0 12.4770408,0 C11.3903061,0 10.5331633,0.913265306 10.5331633,2 C10.5331633,2.79081633 11.0076531,3.46428571 11.6607143,3.78061224 L11.6607143,3.80102041 L10.5739796,7.80102041 C9.9005102,8.08163265 9.29846939,8.5 8.80867347,9.01020408 L5.10459184,5.03061224 C5.61989796,4.49489796 5.93622449,3.78061224 5.93622449,2.96938776 C5.93622449,1.34693878 4.60969388,0.0153061224 2.98214286,0.0153061224 C1.35459184,0.0153061224 0.0280612245,1.34183673 0.0280612245,2.96938776 C0.0280612245,4.59183673 1.35459184,5.92346939 2.98214286,5.92346939 C3.43112245,5.92346939 3.88520408,5.80612245 4.25765306,5.63265306 L8.19132653,9.84693878 C7.71683673,10.6173469 7.44132653,11.5306122 7.44132653,12.5204082 C7.44132653,13.6632653 7.83418367,14.7295918 8.46173469,15.5765306 C8.46173469,15.5765306 5.75765306,18.3010204 5.7372449,18.3010204 C5.14540816,17.9030612 4.45153061,17.6683673 3.67602041,17.6683673 C1.65561224,17.6887755 0.0331632653,19.3112245 0.0331632653,21.3316327 C0.0331632653,23.3520408 1.65561224,24.9744898 3.67602041,24.9744898 C5.69642857,24.9744898 7.31887755,23.3520408 7.31887755,21.3316327 C7.31887755,20.4387755 7.00255102,19.627551 6.46683673,18.994898 L9.14030612,16.3214286 C10.0331633,17.1122449 11.2015306,17.5867347 12.4872449,17.5867347 C13.6352041,17.5867347 14.6862245,17.2091837 15.5331633,16.5612245 C15.5331633,16.5612245 19.4005102,20.622449 19.4209184,20.6377551 C19.1811224,21.0561224 19.0637755,21.5306122 19.0637755,22.0459184 C19.0637755,23.6683673 20.3903061,25 22.0178571,25 C23.6454082,25 24.9719388,23.6734694 24.9719388,22.0459184 C24.9719388,20.4183673 23.6658163,19.0714286 22.0433673,19.0714286 Z" id="Shape" stroke="#00B8DE" stroke-width="2"></path>
                        </g>
                    </g>
                </g>
                <g id="Group-11-Copy-2" transform="translate(60.000000, 221.000000)">
                    <g id="blood-drop">
                        <path d="M24.9135231,0 C38.6720641,0 49.8270463,11.1549822 49.8270463,24.9135231 C49.8270463,38.6704626 38.6720641,49.8270463 24.9135231,49.8270463 C11.1549822,49.8270463 0,38.6718861 0,24.9135231 C0,11.1551601 11.1533808,0 24.9135231,0 Z" id="Shape" stroke="#00B8DE"></path>
                        <g id="Group" transform="translate(16.000000, 9.000000)">
                            <path d="M17.891129,20.6471613 C17.891129,25.3842581 14.0509355,29.2244516 9.31383871,29.2244516 C4.57674194,29.2244516 0.736548387,25.3842581 0.736548387,20.6471613 C0.736548387,15.9100645 9.31383871,0.822 9.31383871,0.822 C9.31383871,0.822 17.891129,15.9100645 17.891129,20.6471613 Z M13.11,17.5018065 L11.5485484,17.5018065 C11.2813548,17.5018065 11.0646774,17.285129 11.0646774,17.0179355 L11.0646774,15.4564839 C11.0646774,15.1892903 10.848,14.9726129 10.5808065,14.9726129 L8.04687097,14.9726129 C7.77967742,14.9726129 7.563,15.1892903 7.563,15.4564839 L7.563,17.0179355 C7.563,17.285129 7.34632258,17.5018065 7.07912903,17.5018065 L5.51767742,17.5018065 C5.25048387,17.5018065 5.03380645,17.7184839 5.03380645,17.9856774 L5.03380645,20.5196129 C5.03380645,20.7868065 5.25048387,21.0034839 5.51767742,21.0034839 L7.07912903,21.0034839 C7.34632258,21.0034839 7.563,21.2201613 7.563,21.4873548 L7.563,23.0488065 C7.563,23.316 7.77967742,23.5326774 8.04687097,23.5326774 L10.5808065,23.5326774 C10.848,23.5326774 11.0646774,23.316 11.0646774,23.0488065 L11.0646774,21.4873548 C11.0646774,21.2201613 11.2813548,21.0034839 11.5485484,21.0034839 L13.11,21.0034839 C13.3771935,21.0034839 13.593871,20.7868065 13.593871,20.5196129 L13.593871,17.9856774 C13.593871,17.7183871 13.3771935,17.5018065 13.11,17.5018065 Z" id="Combined-Shape" stroke="#00B8DE"></path>
                            <path d="M9.94480645,0.463258065 C9.66677419,-0.0253548387 8.96090323,-0.0255483871 8.68277419,0.463258065 C8.32877419,1.08609677 0.0106451613,15.7740968 0.0106451613,20.6470645 C0.0106451613,25.776871 4.18403226,29.9502581 9.31383871,29.9502581 C14.4436452,29.9502581 18.6170323,25.776871 18.6170323,20.6470645 C18.6169355,15.7740968 10.2988065,1.08619355 9.94480645,0.463258065 Z M9.31374194,28.4987419 C4.98445161,28.4987419 1.46216129,24.9764516 1.46216129,20.6471613 C1.46216129,16.8657097 7.49148387,5.62054839 9.31374194,2.31309677 C11.1421935,5.63177419 17.1653226,16.8675484 17.1653226,20.6471613 C17.1653226,24.9764516 13.643129,28.4987419 9.31374194,28.4987419 Z" id="Shape" fill="#00B8DE"></path>
                        </g>
                    </g>
                </g>
                <g id="Group-10-Copy-2" transform="translate(60.000000, 278.000000)">
                    <g id="syringe-(1)">
                        <path d="M24.9135231,0 C38.6720641,0 49.8270463,11.1549822 49.8270463,24.9135231 C49.8270463,38.6704626 38.6720641,49.8270463 24.9135231,49.8270463 C11.1549822,49.8270463 0,38.6718861 0,24.9135231 C0,11.1551601 11.1533808,0 24.9135231,0 Z" id="Shape" stroke="#00B8DE"></path>
                        <polygon id="Shape" fill="#00B8DE" points="20.5804545 21.4920455 16.6221281 25.4503719 16.6221281 33.3660331 24.5378512 33.3660331 28.4961157 29.4077686"></polygon>
                        <path d="M39.7105992,18.1932851 L37.0723347,15.5550207 L37.0723347,15.5550207 L34.4331405,12.9167562 L34.4331405,12.9167562 L31.7939463,10.277624 C31.4301033,9.91378099 30.838657,9.91378099 30.474814,10.277624 C30.1109711,10.6423967 30.1109711,11.2329132 30.474814,11.5967562 L32.4535124,13.5754545 L29.8152479,16.2146488 L27.8365496,14.2359504 C27.4717769,13.8711777 26.8812603,13.8711777 26.5174174,14.2359504 L15.9289669,24.789876 C15.7554752,24.9633678 15.6229545,25.2041116 15.6229545,25.4494421 L15.6229545,32.9788843 L10.2653512,38.3692149 C9.90057851,38.7339876 9.91737603,39.3245041 10.2821488,39.6883471 C10.6459917,40.0521901 11.244876,40.0857851 11.6096488,39.7219421 L17.0083471,34.3652066 L24.5377893,34.3652066 C24.7831198,34.3652066 25.0238017,34.2327479 25.1973554,34.0591942 L35.7522727,23.4875413 C35.9257645,23.3140496 36.0256198,23.064938 36.0256198,22.8196074 C36.0256198,22.5742769 35.9258264,22.329814 35.7522727,22.1553926 L33.7735744,20.1748347 L36.4118388,17.5347107 L38.3905372,19.5134091 C38.7553099,19.8781818 39.3458264,19.8772521 39.7096694,19.5134091 C40.0744421,19.1485744 40.0744421,18.5580579 39.7105992,18.1932851 Z M30.9478099,25.6369421 L28.9691116,23.6582438 L27.6499793,24.977376 L29.6286777,26.9560744 L26.9904132,29.5943388 L25.0117149,27.6156405 L23.6925826,28.9347727 L25.671281,30.9470661 L24.1515702,32.4994421 L18.0093182,32.4994421 C17.9645661,32.4994421 17.875,32.2736983 17.7947314,32.1934298 C17.7145248,32.1122934 17.488719,32.023657 17.488719,31.978843 L17.488719,25.8365909 L27.1433264,16.2145868 L29.1388223,18.1932851 L31.7854545,20.8315496 L33.7688017,22.8102479 L30.9478099,25.6369421 Z M32.4535124,18.8528512 L31.1343802,17.533719 L33.7726446,14.8954545 L35.0917769,16.2145868 L32.4535124,18.8528512 Z" id="Shape" fill="#00B8DE"></path>
                    </g>
                </g>
            </g>
        </g>
    </g>
</svg>